<svg width="14" height="18" viewBox="0 0 14 18" fill="none" xmlns="http://www.w3.org/2000/svg">
<path fill-rule="evenodd" clip-rule="evenodd" d="M0 6.82298C0 3.00895 3.16665 0 7 0C10.8334 0 14 3.00895 14 6.82298C14 8.00937 13.5465 9.27903 12.9308 10.472C12.309 11.6769 11.4877 12.8679 10.6787 13.9129C9.86799 14.9602 9.05895 15.8745 8.45338 16.5264C8.15025 16.8528 7.89723 17.1143 7.71934 17.2948C7.63038 17.3851 7.56015 17.4552 7.51177 17.5031C7.48758 17.5271 7.46885 17.5455 7.45596 17.5581L7.44107 17.5727L7.437 17.5766L7.43583 17.5778C7.43583 17.5778 7.43524 17.5783 7 17.0986C6.56477 17.5783 6.56454 17.5781 6.56454 17.5781L6.563 17.5766L6.55893 17.5727L6.54404 17.5581C6.53115 17.5455 6.51242 17.5271 6.48823 17.5031C6.43985 17.4552 6.36962 17.3851 6.28066 17.2948C6.10277 17.1143 5.84975 16.8528 5.54662 16.5264C4.94105 15.8745 4.13201 14.9602 3.32127 13.9129C2.51228 12.8679 1.69098 11.6769 1.06918 10.472C0.453507 9.27903 0 8.00937 0 6.82298ZM7 17.0986L6.56454 17.5781L7 18L7.43583 17.5778L7 17.0986ZM4.24242 6.82298C4.24242 5.26958 5.49998 4.11023 7 4.11023C8.50002 4.11023 9.75758 5.26958 9.75758 6.82298C9.75758 8.37638 8.50002 9.53574 7 9.53574C5.49998 9.53574 4.24242 8.37638 4.24242 6.82298Z" fill="#E12026"/>
</svg>
