<svg width="20" height="20" viewBox="0 0 20 20" fill="none" xmlns="http://www.w3.org/2000/svg">
<path d="M16.5 5.21259C16.4992 5.90756 16.0025 6.35693 15.4576 6.4283C15.3319 6.44476 15.1953 6.39184 15.0675 6.35532C13.9847 6.04598 12.9025 5.73412 11.8211 5.41916C11.7326 5.39336 11.6737 5.40048 11.6051 5.47637C11.2267 5.89525 10.7969 6.23842 10.2669 6.38359C9.19996 6.67582 8.26455 6.42715 7.48955 5.54542C7.14532 5.15378 6.92269 4.69629 6.79752 4.17701C6.79492 4.16623 6.7929 4.15528 6.79088 4.14435C6.76567 4.00805 6.70619 3.93238 6.56655 3.89295C5.77299 3.66885 4.98275 3.4307 4.19263 3.19243C3.87145 3.09557 3.55407 2.9839 3.2338 2.88336C2.8082 2.74974 2.58791 2.42386 2.51428 1.96825C2.42616 1.42304 2.75572 0.818015 3.23332 0.63425C3.44178 0.554043 3.65437 0.585313 3.85955 0.638922C4.51472 0.810104 5.16776 0.99105 5.82086 1.17147C6.2596 1.29266 6.69904 1.41186 7.13393 1.54797C7.27103 1.59088 7.35606 1.54666 7.45248 1.45534C7.62955 1.28761 7.80649 1.11649 8.0001 0.973408C8.30986 0.744493 8.64825 0.573775 9.02585 0.527875C10.0636 0.401724 10.9569 0.698889 11.6428 1.59805C11.9048 1.94157 12.0803 2.33241 12.1802 2.76125C12.2231 2.94494 12.3098 3.03557 12.4781 3.08591C13.5504 3.40671 14.6198 3.73895 15.6907 4.06577C16.1802 4.21517 16.4999 4.66578 16.5 5.21259ZM9.4899 4.49231C9.99219 4.49213 10.4269 4.04418 10.4185 3.51252C10.4102 2.98381 10.0726 2.48284 9.47208 2.49203C8.93362 2.50027 8.60597 2.93861 8.58315 3.51419C8.56296 4.02342 9.01362 4.49248 9.4899 4.49231Z" fill="#606060"/>
<path d="M0.5 11.168C0.76628 10.757 1.03326 10.3465 1.2987 9.93496C1.94767 8.92893 2.59485 7.92178 3.24503 6.91651C3.48639 6.54334 3.73275 6.17329 3.9797 5.80368C4.06008 5.68337 4.1608 5.58602 4.30583 5.53597C4.55538 5.44986 4.82753 5.52017 4.97488 5.73856C5.30153 6.22268 5.62462 6.70932 5.93953 7.20092C6.6745 8.34829 7.40454 9.49873 8.13451 10.6492C8.2404 10.8161 8.3414 10.9867 8.43173 11.1621C8.4718 11.2399 8.498 11.3335 8.49943 11.4205C8.5257 13.0112 7.6365 14.4889 6.1346 15.1638C5.50666 15.446 4.85036 15.5405 4.16147 15.4851C2.96886 15.3893 2.03231 14.8458 1.31261 13.927C0.923559 13.4304 0.657909 12.8686 0.567849 12.2405C0.534001 12.0044 0.533458 11.7637 0.51677 11.5252C0.513411 11.4772 0.505703 11.4295 0.5 11.3816C0.5 11.3104 0.5 11.2392 0.5 11.168ZM1.88659 11.2993H7.09899C6.23183 9.94892 5.37961 8.62181 4.52739 7.2947C4.51405 7.29371 4.5007 7.29271 4.48736 7.29172C3.62435 8.62154 2.76134 9.95137 1.88659 11.2993Z" fill="#606060"/>
<path d="M10.5 14.7347C10.7996 14.2827 11.0999 13.8311 11.3985 13.3784C12.1286 12.2718 12.8567 11.1639 13.5882 10.0581C13.8597 9.64765 14.1368 9.24059 14.4147 8.83402C14.5051 8.70168 14.6184 8.5946 14.7816 8.53955C15.0623 8.44483 15.3685 8.52216 15.5342 8.76239C15.9017 9.29493 16.2652 9.83022 16.6195 10.371C17.4463 11.6331 18.2676 12.8986 19.0888 14.1641C19.2079 14.3477 19.3216 14.5354 19.4232 14.7283C19.4683 14.8139 19.4977 14.9169 19.4994 15.0125C19.5289 16.7622 18.5286 18.3878 16.8389 19.1302C16.1325 19.4406 15.3942 19.5445 14.6192 19.4836C13.2775 19.3782 12.2239 18.7804 11.4142 17.7697C10.9765 17.2234 10.6776 16.6054 10.5763 15.9145C10.5383 15.6548 10.5376 15.3901 10.5189 15.1277C10.5151 15.0749 10.5064 15.0224 10.5 14.9697C10.5 14.8914 10.5 14.8131 10.5 14.7347ZM12.0599 14.8792H17.9239C16.9483 13.3938 15.9896 11.934 15.0308 10.4742C15.0158 10.4731 15.0008 10.472 14.9858 10.4709C14.0149 11.9337 13.044 13.3965 12.0599 14.8792Z" fill="#606060"/>
</svg>
