<svg width="30" height="30" viewBox="0 0 30 30" fill="none" xmlns="http://www.w3.org/2000/svg">
<g id="Frame 1000009384">
<circle id="Ellipse 65" cx="15.5" cy="22.5" r="7.5" fill="white"/>
<path id="Vector" d="M10.481 12.9474C12.6065 13.0142 14.6677 13.0792 16.729 13.1437C17.5465 13.1693 18.3665 13.1727 19.1804 13.2302C19.464 13.2503 19.8443 13.3486 19.9717 13.5127C20.0685 13.6374 19.8987 13.9593 19.7396 14.1308C16.7369 17.3664 13.7183 20.5929 10.7025 23.8209C8.87979 25.772 7.05695 27.7229 5.23152 29.6724C5.04182 29.875 4.83473 30.1001 4.4584 29.9525C4.08719 29.8069 4.00795 29.5425 4.10558 29.2385C4.1375 29.1391 4.17782 29.0413 4.21495 28.943C5.70491 24.9966 7.19504 21.0503 8.68449 17.1039C8.73173 16.9787 8.77215 16.8519 8.82569 16.6972C7.96371 16.6605 7.13577 16.6191 6.30711 16.5912C4.43075 16.528 2.5537 16.477 0.677913 16.4051C0.438439 16.3959 0.0122825 16.3035 0.00463178 16.2285C-0.0181977 16.0046 0.042051 15.7181 0.214645 15.548C1.983 13.8045 3.77934 12.0787 5.56926 10.3489C8.99612 7.03718 12.4237 3.72592 15.8516 0.414848C16.0932 0.181546 16.2995 -0.155438 16.7858 0.079881C17.2864 0.3221 17.0105 0.643864 16.857 0.932199C14.7985 4.79906 12.7353 8.66437 10.6746 12.5305C10.6107 12.6504 10.5607 12.7748 10.481 12.9474Z" fill="#E12026"/>
</g>
</svg>
