<svg width="28" height="31" viewBox="0 0 28 31" fill="none" xmlns="http://www.w3.org/2000/svg">
<path d="M15.5768 30.5H12.6143V26.7488C11.5583 27.3379 10.6282 27.8568 9.65468 28.3998C9.16249 27.561 8.69054 26.7566 8.19893 25.9187C8.38277 25.8072 8.54 25.7069 8.70186 25.6145C9.86998 24.9472 11.0344 24.2734 12.2113 23.6215C12.4811 23.4721 12.5876 23.307 12.5847 22.9973C12.5704 21.5134 12.5836 20.0293 12.5851 18.5452C12.5852 18.4117 12.5719 18.2782 12.5625 18.1002C12.4458 18.1474 12.3731 18.1679 12.3096 18.2038C10.9041 18.9983 9.49519 19.7872 8.10196 20.6019C7.96659 20.6811 7.8628 20.9196 7.85764 21.0874C7.8327 21.899 7.84654 22.7118 7.84659 23.5241C7.84662 24.2067 7.8466 24.8892 7.8466 25.5749H4.85495V22.4359C3.71519 23.0765 2.64426 23.6783 1.53427 24.3022C1.03568 23.4434 0.562049 22.6276 0.0786152 21.7949C1.1903 21.1581 2.24096 20.5562 3.35813 19.9163C2.35967 19.335 1.42633 18.7917 0.475179 18.238C0.982904 17.3778 1.45632 16.5757 1.93999 15.7562C3.32264 16.532 4.64976 17.2706 5.96922 18.0222C6.22494 18.1678 6.42405 18.1966 6.70137 18.0347C8.02694 17.2609 9.36952 16.5151 10.7044 15.7566C10.8035 15.7003 10.8898 15.6225 11.0198 15.5268C9.68176 14.7618 8.37065 14.0556 7.10958 13.2719C6.5234 12.9076 6.08644 12.904 5.49702 13.2769C4.37927 13.9839 3.1981 14.5945 1.99707 15.2712C1.50295 14.4236 1.03429 13.6197 0.543724 12.7782C1.47924 12.2364 2.37646 11.7167 3.35876 11.1478C2.18276 10.5052 1.09138 9.90885 0 9.3125C1.33788e-07 9.25 1.3379e-07 9.1875 2.29353e-07 9.125C0.11865 8.96916 0.252566 8.82222 0.353232 8.6559C0.731092 8.03163 1.0981 7.40103 1.47799 6.75788C2.5937 7.38344 3.65047 7.97595 4.79513 8.61774V5.32857H7.73848C7.73848 5.52913 7.73839 5.69816 7.7385 5.86718C7.73935 7.22608 7.73195 8.58509 7.75184 9.94372C7.75427 10.1094 7.85782 10.3481 7.99143 10.426C9.45356 11.2788 10.9308 12.1066 12.4054 12.9386C12.44 12.9581 12.4921 12.9477 12.5832 12.9551C12.5832 11.6785 12.5866 10.4188 12.5816 9.15914C12.5795 8.63022 12.7351 8.0016 12.4983 7.60054C12.2616 7.19956 11.6268 7.02191 11.162 6.75395C10.1799 6.18782 9.19493 5.62664 8.19058 5.05167C8.70081 4.19299 9.18322 3.38112 9.66902 2.56354C10.6594 3.11798 11.5879 3.63774 12.6143 4.21232V0.5H15.5768V4.22318C16.5449 3.67894 17.4354 3.17829 18.3633 2.65667C18.8607 3.50385 19.339 4.31844 19.8349 5.16298C18.5081 5.91375 17.2351 6.64656 15.9474 7.35364C15.6428 7.52088 15.5389 7.71283 15.5438 8.05242C15.564 9.45725 15.5522 10.8625 15.5521 12.2676C15.5521 12.4898 15.5521 12.712 15.5521 13.0116C17.1425 12.1096 18.6303 11.2741 20.1035 10.4144C20.2249 10.3436 20.3035 10.109 20.3057 9.94929C20.3222 8.73174 20.3147 7.51388 20.3147 6.29612C20.3147 5.98873 20.3147 5.68135 20.3147 5.36118H23.2648V8.62358C24.3836 7.99718 25.4264 7.41331 26.5032 6.81045C26.6521 7.04324 26.7794 7.23676 26.9011 7.43363C27.2686 8.02797 27.6339 8.62361 28 9.21875V9.3125C26.9274 9.91571 25.8548 10.5189 24.7076 11.164C25.6744 11.7238 26.5833 12.2501 27.5159 12.7901C27.009 13.6465 26.5337 14.4496 26.041 15.282C24.9112 14.6448 23.8017 14.0919 22.776 13.4164C22.0272 12.9234 21.4442 12.934 20.6951 13.4227C19.5335 14.1807 18.2909 14.8191 17.071 15.5148C17.1315 15.5834 17.1553 15.629 17.1933 15.6507C18.6227 16.4671 20.0503 17.2865 21.4894 18.0861C21.607 18.1515 21.8306 18.1289 21.9596 18.0625C22.5226 17.7729 23.0687 17.4519 23.6211 17.1426C24.446 16.6809 25.271 16.2194 26.1249 15.7416C26.6162 16.5952 27.0826 17.4055 27.5646 18.2428C26.6041 18.7976 25.6817 19.3303 24.694 19.9008C25.8139 20.546 26.8592 21.1483 27.9252 21.7625C27.4186 22.6233 26.9443 23.4291 26.4581 24.2552C25.3522 23.635 24.2963 23.0429 23.1515 22.4009V25.56H20.1717C20.1717 24.0533 20.1622 22.5857 20.1795 21.1184C20.1831 20.8137 20.0912 20.6432 19.8188 20.4928C18.5298 19.7812 17.2536 19.0474 15.9715 18.3238C15.8547 18.2578 15.7284 18.2079 15.5557 18.1266C15.5557 19.4683 15.6413 20.7559 15.529 22.0268C15.437 23.0682 15.8039 23.6295 16.7487 24.0637C17.8059 24.5496 18.7816 25.2061 19.8235 25.8062C19.3295 26.6531 18.86 27.458 18.3703 28.2975C17.4209 27.7694 16.5163 27.2662 15.5768 26.7435V30.5Z" fill="#0084BF"/>
</svg>
