<svg width="21" height="33" viewBox="0 0 21 33" fill="none" xmlns="http://www.w3.org/2000/svg">
<path d="M20.5 0.313965C20.4961 2.04305 20.4907 3.77213 20.4886 5.50122C20.4867 7.08463 20.4882 8.66804 20.4882 10.2515V10.6046H0.511804C0.511804 10.464 0.511803 10.3421 0.511803 10.2202C0.511802 7.04296 0.511938 3.86571 0.511303 0.688473C0.511278 0.563636 0.503934 0.438801 0.5 0.313965H20.5ZM2.99372 6.1927C2.99372 6.89019 2.98555 7.58775 2.99678 8.28512C3.00352 8.70405 3.33553 8.96261 3.81996 8.95644C4.29428 8.9504 4.59968 8.68334 4.61962 8.22405C4.63722 7.81853 4.6241 7.41216 4.62411 7.00616C4.62413 6.07965 4.63199 5.15307 4.62039 4.22665C4.6144 3.74876 4.26175 3.43704 3.78464 3.45C3.30337 3.46308 2.99583 3.76075 2.99353 4.22517C2.99029 4.88101 2.99271 5.53686 2.99372 6.1927Z" fill="#E12026"/>
<path d="M0.541835 11.9405H20.4586V30.5656H18.6434V32.3139H14.8409V30.6066H6.16375V32.3108H2.37843V30.598H0.541835V11.9405ZM2.99272 16.7555C2.99272 17.4216 2.98988 18.0877 2.99371 18.7538C2.99632 19.2067 3.28775 19.4924 3.75779 19.5148C4.2187 19.5367 4.60684 19.26 4.61353 18.8245C4.63464 17.4509 4.63449 16.0769 4.61473 14.7032C4.60835 14.2592 4.23994 13.9917 3.76784 14.0078C3.29219 14.024 2.99661 14.3054 2.99379 14.7572C2.98964 15.4233 2.99272 16.0894 2.99272 16.7555Z" fill="#E12026"/>
</svg>
