<svg width="29" height="33" viewBox="0 0 29 33" fill="none" xmlns="http://www.w3.org/2000/svg">
<path d="M6.64314 32.1396C5.93258 31.751 5.88025 31.3039 6.06706 30.6797C6.6968 28.5752 7.27642 26.4572 7.894 24.3493C8.02279 23.9098 7.95649 23.5502 7.6794 23.1793C5.40803 20.139 3.14767 17.0913 0.883507 14.0461C0.464934 13.4831 0.457798 13.1842 0.864766 12.6306C2.34848 10.6123 3.83312 8.59452 5.31877 6.57745C5.77151 5.96278 6.19705 5.86754 6.8903 6.21675C9.39486 7.47835 11.9001 8.73876 14.4041 10.0013C15.2179 10.4116 15.3428 10.9321 14.8196 11.6559C13.9784 12.8195 14.0717 12.7442 12.6329 12.7088C10.8918 12.6659 9.15063 12.6284 7.40946 12.5895C6.74486 12.5746 6.30133 12.9147 6.27447 13.4569C6.24694 14.0124 6.67128 14.4262 7.33636 14.4477C8.58434 14.4882 9.83291 14.5169 11.0814 14.5303C11.3686 14.5333 11.5188 14.6102 11.6464 14.8694C13.0143 17.6484 14.4003 20.4194 15.7765 23.1948C15.9444 23.5333 16.1676 23.7999 16.5753 23.8663C16.9495 23.9273 17.2718 23.8279 17.5072 23.5353C17.7476 23.2364 17.7819 22.9029 17.6215 22.5646C17.3742 22.043 17.1085 21.5291 16.8512 21.0117C15.8454 18.9892 14.8396 16.9667 13.8345 14.9439C13.7845 14.843 13.7419 14.7388 13.6511 14.5366C14.0199 14.6156 14.3313 14.6302 14.5929 14.7464C17.3751 15.9827 20.1627 17.2094 22.9203 18.4941C24.2958 19.1349 25.5529 19.179 26.7449 18.19C26.77 18.2137 26.7972 18.2276 26.7968 18.2405C26.7594 19.3218 26.78 20.4089 26.6665 21.4829C26.4991 23.067 25.653 24.3111 24.3127 25.2517C24.0756 25.4181 23.8293 25.5765 23.5717 25.7118C23.1292 25.9442 22.9618 26.2978 22.9542 26.7654C22.9297 28.2855 22.8749 29.8053 22.8616 31.3255C22.8566 31.8905 22.6545 32.2891 22.0856 32.4906L6.64314 32.1396Z" fill="#E12026"/>
<path d="M19.0567 14.6665C18.3757 14.3587 17.4742 14.106 16.7465 13.5469C16.3658 13.2545 16.3972 12.7606 16.7158 12.3265C17.7595 10.9045 18.8063 9.48458 19.8521 8.06396C19.9961 7.8683 20.135 7.66889 20.2866 7.47871C20.6402 7.03521 21.1882 6.93923 21.6809 7.24573C22.2027 7.57039 22.7187 7.90408 23.2282 8.24605C23.7668 8.60759 23.8631 9.13925 23.4824 9.65977C22.3721 11.1775 21.2547 12.6906 20.1411 14.2061C19.921 14.5057 19.6395 14.6937 19.0567 14.6665Z" fill="#E12026"/>
<path d="M24.4778 17.1057C23.7857 16.7819 22.8823 16.5365 22.1533 15.9773C21.8049 15.71 21.788 15.2302 22.0548 14.8629C23.0909 13.4371 24.1349 12.0164 25.1911 10.6041C25.5109 10.1765 26.0626 10.0975 26.5309 10.3867C27.081 10.7265 27.6251 11.0761 28.1584 11.4392C28.6237 11.7562 28.7357 12.288 28.4125 12.7341C27.4466 14.0676 26.4651 15.3909 25.4851 16.7151C25.2833 16.9879 24.9969 17.1211 24.4778 17.1057Z" fill="#E12026"/>
<path d="M11.0249 6.19707C9.68907 5.52426 8.39674 4.87337 7.07553 4.20793C7.13639 4.11754 7.18366 4.04171 7.23657 3.96963C8.02372 2.89741 8.81099 1.82527 9.59958 0.754017C10.0476 0.145419 10.5687 0.0580628 11.2242 0.480071C11.84 0.876465 12.4588 1.26864 13.0688 1.6729C13.5366 1.98285 13.7026 2.50768 13.4066 2.92841C12.6368 4.02266 11.8318 5.09446 11.0249 6.19707Z" fill="#E12026"/>
<path d="M12.7711 7.07578C12.9805 6.78688 13.1697 6.52284 13.3623 6.26104C13.8881 5.54607 14.4131 4.83057 14.9427 4.11812C15.327 3.60099 15.8771 3.49781 16.4244 3.84503C17.0617 4.2493 17.695 4.65935 18.3249 5.07397C18.8828 5.44121 18.988 5.97604 18.6037 6.50572C18.0082 7.32645 17.4041 8.1415 16.8032 8.95869C16.7847 8.98384 16.7617 9.00604 16.7137 9.06029C15.4111 8.40463 14.1032 7.74632 12.7711 7.07578Z" fill="#E12026"/>
</svg>
