<?xml version="1.0" standalone="no"?>
<!DOCTYPE svg PUBLIC "-//W3C//DTD SVG 1.1//EN" "http://www.w3.org/Graphics/SVG/1.1/DTD/svg11.dtd" >
<svg xmlns="http://www.w3.org/2000/svg">
<metadata>Generated by IcoMoon</metadata>
<defs>
<font id="hladoteka" horiz-adv-x="1024">
<font-face units-per-em="1024" ascent="960" descent="-64" />
<missing-glyph horiz-adv-x="1024" />
<glyph unicode="&#x20;" horiz-adv-x="512" d="" />
<glyph unicode="&#xe900;" glyph-name="beer-cooler" d="M944.274 960h-865.377c-44.016 0-78.897-35.74-78.897-78.961v-711.482h1024v711.482c-0.829 44.052-35.712 78.961-79.726 78.961zM972.508 513.994h-921.848v338.785c0 27.429 21.593 49.039 48.999 49.039h823.021c27.405 0 48.998-21.61 48.998-49.039v-338.785h0.829zM971.661 111.378h-921.020v-175.378h921.020v175.378zM984.968 740.569h-950.916v-29.091h950.916v29.091z" />
<glyph unicode="&#xe901;" d="M512 960c282.77 0 512-229.23 512-512s-229.23-512-512-512c-282.77 0-512 229.23-512 512s229.23 512 512 512z" />
<glyph unicode="&#xe902;" d="M298.414 661.586c7.79 7.79 20.421 7.79 28.21 0l398.961-398.961c7.788-7.79 7.788-20.42 0-28.21-7.79-7.788-20.421-7.788-28.21 0l-398.961 398.961c-7.79 7.79-7.79 20.42 0 28.21z" />
<glyph unicode="&#xe903;" d="M725.586 661.586c7.788-7.79 7.788-20.421 0-28.21l-398.961-398.961c-7.79-7.788-20.42-7.788-28.21 0-7.79 7.79-7.79 20.421 0 28.21l398.961 398.961c7.79 7.79 20.42 7.79 28.21 0z" />
<glyph unicode="&#xe904;" glyph-name="cold-boxes" d="M478.456 507.949l-99.361 145.902h79.109c11.392 0 20.252-10.808 20.252-23.931v-121.971zM48.099 681.642c-26.581 0-48.099-26.247-48.099-57.898v-387.528h502.508v445.426h-454.409zM86.651 181.714c0-22.387-15.189-40.914-34.176-40.914s-34.175 18.527-34.175 40.914c0 22.387 15.189 40.914 34.175 40.914s34.176-18.527 34.176-40.914zM545.549 629.921c0 13.124 8.86 23.931 20.252 23.931h79.112l-99.364-145.902v121.971zM521.5 681.642v-445.426h502.508v387.528c0 32.423-21.519 57.898-48.1 57.898h-454.408zM925.85 181.714c0-22.387 15.188-40.914 33.544-40.914 18.353 0 33.541 18.527 33.541 40.914s-15.188 40.914-33.541 40.914c-18.355 0-33.544-18.527-33.544-40.914zM29.102 708.882h974.636v46.318h-974.636v-46.318z" />
<glyph unicode="&#xe905;" glyph-name="comparison" d="M844.8 693.115c-0.041-35.582-25.472-58.59-53.371-62.244-6.436-0.843-13.43 1.867-19.973 3.737-55.439 15.838-110.848 31.805-166.216 47.931-4.531 1.321-7.547 0.956-11.059-2.929-19.374-21.447-41.38-39.017-68.516-46.45-54.627-14.962-102.52-2.23-142.2 42.914-17.625 20.052-29.023 43.475-35.432 70.063-0.133 0.552-0.237 1.113-0.34 1.672-1.291 6.979-4.336 10.853-11.486 12.872-40.63 11.474-81.091 23.667-121.545 35.867-16.444 4.959-32.694 10.677-49.092 15.824-21.791 6.841-33.070 23.526-36.839 46.854-4.512 27.915 12.362 58.892 36.815 68.301 10.673 4.107 21.558 2.506 32.063-0.239 33.545-8.765 66.98-18.029 100.419-27.266 22.463-6.205 44.963-12.308 67.229-19.277 7.020-2.197 11.373 0.067 16.31 4.743 9.066 8.588 18.125 17.349 28.038 24.675 15.86 11.72 33.185 20.461 52.518 22.811 53.133 6.459 98.87-8.756 133.988-54.793 13.414-17.588 22.4-37.599 27.515-59.556 2.196-9.405 6.636-14.045 15.252-16.623 54.902-16.425 109.655-33.436 164.485-50.169 25.062-7.649 41.431-30.721 41.436-58.717zM485.883 729.994c25.717 0.009 47.974 22.944 47.544 50.165-0.425 27.070-17.71 52.72-48.457 52.249-27.569-0.422-44.345-22.865-45.513-52.335-1.034-26.073 22.040-50.088 46.426-50.080zM25.6 388.198c13.634 21.043 27.303 42.061 40.893 63.132 33.227 51.509 66.363 103.075 99.652 154.545 12.358 19.106 24.971 38.053 37.615 56.977 4.115 6.16 9.272 11.144 16.698 13.707 12.777 4.409 26.711 0.809 34.255-10.373 16.724-24.787 33.267-49.703 49.39-74.873 37.63-58.745 75.009-117.648 112.383-176.552 5.422-8.545 10.593-17.28 15.218-26.26 2.052-3.983 3.393-8.776 3.466-13.23 1.345-81.444-44.182-157.102-121.079-191.657-32.151-14.449-65.753-19.287-101.024-16.451-61.062 4.905-109.013 32.732-145.862 79.775-19.919 25.426-33.521 54.19-38.132 86.349-1.733 12.088-1.761 24.412-2.615 36.623-0.172 2.458-0.567 4.9-0.859 7.352 0 3.645 0 7.291 0 10.936zM96.593 381.476h266.875c-44.399 69.139-88.032 137.087-131.666 205.036-0.683 0.051-1.367 0.102-2.050 0.153-44.186-68.087-88.372-136.174-133.159-205.188zM537.6 205.583c15.34 23.142 30.715 46.264 46.003 69.443 37.381 56.658 74.66 113.382 112.113 169.999 13.901 21.015 28.088 41.857 42.317 62.673 4.628 6.776 10.429 12.258 18.785 15.077 14.372 4.85 30.049 0.89 38.533-11.409 18.816-27.266 37.427-54.673 55.567-82.361 42.332-64.62 84.383-129.413 126.428-194.207 6.098-9.4 11.919-19.011 17.121-28.887 2.309-4.383 3.814-9.656 3.901-14.551 1.51-89.585-49.705-172.815-136.218-210.826-36.168-15.892-73.969-21.212-113.649-18.094-68.695 5.396-122.639 36.004-164.096 87.752-22.41 27.971-37.714 59.612-42.9 94.986-1.946 13.297-1.981 26.849-2.939 40.284-0.195 2.703-0.64 5.391-0.968 8.090 0 4.009 0 8.018 0 12.032zM617.467 198.185h300.237c-49.951 76.052-99.036 150.794-148.127 225.536-0.768 0.056-1.536 0.113-2.304 0.169-49.71-74.895-99.42-149.791-149.806-225.705z" />
<glyph unicode="&#xe906;" glyph-name="comparison-hover" d="M832.573 882.935c19.86-29.521 11.643-62.818-9.441-81.447-4.864-4.297-12.175-5.961-18.647-8.071-54.82-17.87-109.681-35.617-164.603-53.209-4.495-1.441-6.794-3.429-7.532-8.613-4.065-28.614-12.483-55.485-30.828-76.822-36.92-42.952-83.746-59.178-141.886-43.94-25.824 6.768-48.372 19.813-68.553 38.271-0.419 0.383-0.818 0.791-1.217 1.197-4.973 5.064-9.663 6.573-16.72 4.248-40.1-13.208-80.461-25.724-120.821-38.232-16.406-5.084-33.075-9.431-49.548-14.333-21.891-6.514-40.571 1.012-56.741 18.243-19.35 20.619-22.684 55.736-7.673 77.211 6.552 9.373 16.472 14.132 26.716 17.731 32.711 11.492 65.611 22.508 98.498 33.549 22.093 7.417 44.158 14.939 66.515 21.613 7.048 2.104 9.391 6.415 10.869 13.052 2.714 12.189 5.325 24.518 9.447 36.135 6.594 18.585 16.070 35.52 30.784 48.28 40.439 35.067 86.865 48.030 141.72 29.499 20.955-7.080 39.597-18.644 56.119-33.986 7.076-6.572 13.353-7.935 21.934-5.255 54.702 17.085 109.609 33.602 164.419 50.387 25.057 7.673 51.528-2.298 67.19-25.507zM514.394 712.805c21.315 14.388 26.943 45.849 11.365 68.176-15.491 22.203-44.165 33.802-69.391 16.219-22.62-15.767-23.978-43.753-8.467-68.838 13.723-22.193 46.281-29.2 66.493-15.557zM25.6 179.994c15.338 23.148 30.716 46.269 46.005 69.443 37.381 56.658 74.658 113.382 112.109 169.999 13.902 21.018 28.092 41.859 42.317 62.675 4.63 6.776 10.431 12.259 18.785 15.077 14.374 4.85 30.050 0.89 38.537-11.409 18.815-27.266 37.425-54.674 55.564-82.358 42.334-64.625 84.385-129.413 126.431-194.207 6.099-9.4 11.917-19.011 17.119-28.887 2.309-4.383 3.817-9.656 3.9-14.556 1.513-89.585-49.705-172.815-136.214-210.826-36.169-15.887-73.972-21.212-113.653-18.094-68.694 5.396-122.639 36.009-164.094 87.752-22.409 27.976-37.711 59.612-42.898 94.991-1.95 13.292-1.981 26.849-2.942 40.284-0.194 2.703-0.637 5.391-0.966 8.084 0 4.009 0 8.023 0 12.032zM105.467 172.595h300.234c-49.948 76.058-99.036 150.799-148.124 225.541-0.769 0.056-1.537 0.113-2.306 0.169-49.71-74.895-99.419-149.791-149.805-225.71zM537.6 362.614c13.635 21.043 27.305 42.061 40.893 63.13 33.229 51.508 66.365 103.074 99.651 154.544 12.36 19.106 24.97 38.053 37.617 56.977 4.116 6.16 9.272 11.144 16.696 13.707 12.78 4.409 26.711 0.809 34.258-10.372 16.722-24.787 33.265-49.703 49.388-74.873 37.632-58.745 75.008-117.647 112.384-176.554 5.422-8.54 10.593-17.28 15.217-26.255 2.053-3.988 3.395-8.781 3.466-13.23 1.347-81.444-44.18-157.107-121.078-191.662-32.148-14.449-65.751-19.282-101.023-16.451-61.061 4.905-109.015 32.732-145.864 79.775-19.917 25.431-33.521 54.195-38.134 86.354-1.731 12.088-1.756 24.407-2.611 36.623-0.174 2.458-0.568 4.9-0.86 7.347 0 3.651 0 7.296 0 10.941zM608.594 355.891h266.875c-44.401 69.135-88.033 137.084-131.666 205.032-0.686 0.051-1.367 0.102-2.048 0.153-44.186-68.087-88.376-136.173-133.161-205.186z" />
<glyph unicode="&#xe907;" d="M785.067 192c0-141.385-114.615-256-256-256s-256 114.615-256 256c0 141.385 114.615 256 256 256s256-114.615 256-256z" />
<glyph unicode="&#xe908;" d="M357.751 518.062c72.55-2.28 142.906-4.499 213.265-6.7 27.904-0.874 55.893-0.99 83.674-2.953 9.68-0.686 22.661-4.041 27.010-9.643 3.304-4.256-2.492-15.244-7.922-21.098-102.492-110.442-205.527-220.573-308.466-330.755-62.215-66.598-124.435-133.188-186.743-199.731-6.475-6.915-13.544-14.599-26.389-9.561-12.671 4.97-15.375 13.995-12.043 24.371 1.090 3.393 2.466 6.731 3.733 10.086 50.857 134.704 101.72 269.404 152.56 404.108 1.612 4.273 2.992 8.602 4.82 13.882-29.422 1.253-57.683 2.666-85.968 3.618-64.046 2.157-128.116 3.898-192.143 6.352-8.174 0.314-22.72 3.468-22.981 6.028-0.779 7.642 1.277 17.422 7.168 23.228 60.36 59.511 121.675 118.419 182.771 177.463 116.97 113.040 233.965 226.064 350.971 339.082 8.247 7.963 15.288 19.466 31.887 11.434 17.087-8.268 7.67-19.251 2.43-29.092-70.263-131.989-140.687-263.925-211.026-395.889-2.181-4.093-3.888-8.339-6.608-14.23z" />
<glyph unicode="&#xe909;" glyph-name="freezing" d="M564.085-47.484h-97.858v123.911c-34.882-19.459-65.605-36.6-97.763-54.536-16.258 27.707-31.848 54.279-48.087 81.956 6.073 3.683 11.266 6.996 16.613 10.048 38.586 22.042 77.049 44.3 115.925 65.833 8.912 4.935 12.43 10.389 12.334 20.619-0.472 49.017-0.036 98.040 0.013 147.063 0.003 4.41-0.436 8.82-0.747 14.699-3.855-1.559-6.256-2.236-8.354-3.422-46.427-26.244-92.966-52.303-138.988-79.215-4.472-2.616-7.9-10.494-8.070-16.037-0.824-26.809-0.367-53.658-0.365-80.49 0.001-22.548 0-45.092 0-67.743h-98.821v103.688c-37.649-21.16-73.024-41.039-109.69-61.648-16.47 28.368-32.115 55.316-48.084 82.822 36.721 21.035 71.427 40.917 108.33 62.054-32.981 19.202-63.812 37.148-95.23 55.438 16.771 28.414 32.409 54.91 48.386 81.979 45.672-25.626 89.51-50.024 133.095-74.851 8.447-4.809 15.024-5.761 24.185-0.413 43.787 25.56 88.135 50.196 132.229 75.251 3.273 1.86 6.124 4.43 10.418 7.591-44.198 25.27-87.507 48.597-129.163 74.484-19.363 12.034-33.797 12.153-53.266-0.165-36.922-23.354-75.939-43.523-115.611-65.876-16.322 27.998-31.803 54.553-48.007 82.349 30.902 17.897 60.539 35.064 92.987 53.856-38.846 21.227-74.897 40.925-110.947 60.624 0 2.065 0 4.129 0 6.194 3.919 5.148 8.343 10.002 11.668 15.495 12.482 20.621 24.605 41.451 37.153 62.696 36.854-20.664 71.762-40.236 109.573-61.435v108.649h97.225c0-6.625-0.003-12.208 0.001-17.792 0.028-44.888-0.216-89.779 0.441-134.657 0.080-5.473 3.501-13.358 7.914-15.931 48.297-28.17 97.094-55.514 145.803-82.997 1.143-0.644 2.864-0.301 5.873-0.545 0 42.169 0.112 83.78-0.053 125.389-0.069 17.471 5.070 38.236-2.752 51.484-7.819 13.245-28.788 19.113-44.141 27.965-32.441 18.701-64.977 37.238-98.153 56.23 16.854 28.364 32.789 55.182 48.836 82.189 32.714-18.314 63.385-35.483 97.289-54.463v122.626h97.858v-122.985c31.979 17.977 61.394 34.515 92.044 51.745 16.43-27.984 32.23-54.892 48.61-82.789-43.827-24.8-85.877-49.006-128.413-72.362-10.062-5.524-13.494-11.865-13.332-23.082 0.667-46.405 0.277-92.823 0.274-139.237 0-7.34 0-14.68 0-24.576 52.535 29.795 101.68 57.394 150.343 85.791 4.010 2.339 6.606 10.088 6.679 15.364 0.545 40.218 0.297 80.447 0.297 120.672 0 10.154 0 20.307 0 30.883h97.448v-107.764c36.956 20.691 71.403 39.978 106.972 59.892 4.919-7.69 9.124-14.082 13.144-20.585 12.139-19.632 24.206-39.308 36.299-58.967v-3.097c-35.43-19.925-70.861-39.85-108.755-61.159 31.936-18.491 61.959-35.876 92.764-53.714-16.744-28.289-32.444-54.817-48.719-82.313-37.32 21.048-73.969 39.312-107.85 61.625-24.735 16.285-43.992 15.935-68.737-0.208-38.37-25.038-79.416-46.126-119.712-69.107 1.998-2.266 2.785-3.772 4.040-4.489 47.216-26.968 94.373-54.034 141.91-80.447 3.885-2.16 11.271-1.414 15.532 0.78 18.597 9.566 36.636 20.169 54.883 30.386 27.248 15.251 54.5 30.495 82.706 46.278 16.229-28.196 31.635-54.962 47.557-82.62-31.727-18.326-62.196-35.923-94.822-54.767 36.993-21.312 71.521-41.208 106.734-61.496-16.734-28.434-32.401-55.052-48.462-82.34-36.53 20.487-71.409 40.045-109.224 61.252v-104.352h-98.43c0 49.77-0.314 98.248 0.258 146.716 0.119 10.065-2.917 15.697-11.915 20.665-42.579 23.506-84.734 47.745-127.085 71.647-3.858 2.18-8.030 3.828-13.735 6.514 0-44.319 2.828-86.852-0.882-128.832-3.039-34.4 9.081-52.941 40.289-67.283 34.922-16.050 67.151-37.736 101.568-57.559-16.318-27.975-31.827-54.563-48.002-82.293-31.361 17.444-61.242 34.066-92.276 51.332v-124.086z" />
<glyph unicode="&#xe90a;" glyph-name="fridge" d="M822.303 950.258c-0.121-53.654-0.289-107.308-0.354-160.962-0.059-49.134-0.012-98.267-0.012-147.403v-10.957h-619.874c0 4.363 0 8.145 0 11.928 0 98.591 0.004 197.182-0.016 295.772-0.001 3.874-0.229 7.747-0.351 11.621h620.606zM279.078 767.839c0-21.643-0.254-43.289 0.095-64.928 0.209-13 10.512-21.023 25.544-20.831 14.718 0.187 24.195 8.474 24.814 22.726 0.546 12.583 0.139 25.193 0.139 37.791 0.001 28.75 0.245 57.502-0.115 86.249-0.186 14.829-11.129 24.502-25.934 24.1-14.934-0.406-24.477-9.643-24.548-24.054-0.101-20.351-0.025-40.702 0.006-61.053zM202.995 589.483h618.023v-577.942h-56.326v-54.25h-117.993v52.978h-269.255v-52.882h-117.46v53.149h-56.99v578.948zM279.047 440.072c0-20.669-0.088-41.339 0.031-62.008 0.081-14.054 9.124-22.919 23.71-23.614 14.302-0.68 26.346 7.907 26.554 21.42 0.655 42.623 0.65 85.259 0.037 127.885-0.198 13.777-11.63 22.078-26.279 21.578-14.76-0.503-23.932-9.235-24.019-23.254-0.129-20.669-0.033-41.339-0.033-62.008z" />
<glyph unicode="&#xe90b;" d="M0 721.067c0 131.959 106.974 238.933 238.933 238.933s238.933-106.974 238.933-238.933v-238.933h-238.933c-131.959 0-238.933 106.974-238.933 238.933z" />
<glyph unicode="&#xe90c;" d="M546.133 721.067c0 131.959 106.974 238.933 238.933 238.933s238.933-106.974 238.933-238.933c0-131.959-106.974-238.933-238.933-238.933h-238.933v238.933z" />
<glyph unicode="&#xe90d;" d="M546.133 413.867h238.933c131.959 0 238.933-106.974 238.933-238.933s-106.974-238.933-238.933-238.933h-238.933v477.867z" />
<glyph unicode="&#xe90e;" glyph-name="halfarrow" d="M508.431 618.667l515.569-2.896-515.569-338.437v196.292h-508.431v142.145l508.431 2.896z" />
<glyph unicode="&#xe90f;" glyph-name="heart" d="M950.871 813.030c-85.181 96.156-224.722 122.515-339.338 64.113-28.943-14.76-55.88-35.205-82.319-62.532-5.699-5.889-11.366-11.803-17.27-17.997-0.593 0.637-1.211 1.274-1.804 1.886-10.438 10.911-20.309 21.21-31.006 31.126-69.873 64.827-149.668 90.038-237.221 74.896-58.506-10.12-107.966-32.961-146.962-67.911-38.351-34.363-66.779-80.606-84.486-137.454-3.376-10.808-5.412-21.693-7.397-32.196-0.877-4.742-1.727-9.228-2.681-13.689l-0.386-1.836v-58.963l1.469-3.39c0.232-0.51 0.464-0.994 0.695-1.479 7.81-63.373 36.083-119.991 84.074-168.298 90.672-91.287 182.735-184.23 271.81-274.091 40.62-40.991 81.239-81.981 121.859-122.972 4.2-4.234 8.454-8.438 13.145-13.082l22.241-21.97 12.426 16.799c0.927 1.249 1.751 2.447 2.524 3.569 0.696 1.019 1.649 2.396 2.012 2.775 52.603 53.176 105.231 106.332 157.885 159.457 21.422 21.617 42.839 43.233 64.256 64.824 59.899 60.493 121.861 123.023 182.968 184.308 52.27 52.437 81.188 114.255 85.903 183.773 5.386 79.255-18.97 150.021-72.397 210.335z" />
<glyph unicode="&#xe910;" glyph-name="linkedin" d="M30.118 794.955c0 74.518 60.409 134.927 134.927 134.927h693.911c74.517 0 134.927-60.409 134.927-134.927v-693.911c0-74.517-60.41-134.927-134.927-134.927h-693.911c-74.518 0-134.927 60.41-134.927 134.927v693.911zM377.073 669.666c0-47.905-38.834-86.739-86.739-86.739s-86.739 38.834-86.739 86.739c0 47.905 38.834 86.739 86.739 86.739s86.739-38.834 86.739-86.739zM357.798 525.101c0 10.645-8.63 19.275-19.275 19.275h-96.376c-10.645 0-19.275-8.63-19.275-19.275v-366.231c0-10.644 8.63-19.275 19.275-19.275h96.376c10.645 0 19.275 8.632 19.275 19.275v366.231zM521.638 544.376l-86.739 0.001c-10.645 0-19.275-8.63-19.275-19.275v-366.231c0-10.644 8.63-19.275 19.275-19.275h86.739c10.645 0 19.275 8.632 19.275 19.275v212.028c3.212 19.275 30.84 77.101 77.101 77.101s64.253-51.401 67.464-77.101v-212.028c0-10.644 8.632-19.275 19.275-19.275h86.739c10.644 0 19.275 8.632 19.275 19.275v212.028c3.211 61.038-15.125 173.101-125.289 183.115-35.34 3.213-106.014 0-144.565-48.189v19.275c0 10.645-8.63 19.275-19.275 19.275z" />
<glyph unicode="&#xe911;" glyph-name="long-arrow" d="M992 448l-320 184.752v-369.504l320 184.752zM32 416h672v64h-672v-64z" />
<glyph unicode="&#xe912;" glyph-name="mail" d="M1023.81 668.857c-52.955-36.656-103.629-71.716-154.288-106.795-96.987-67.166-193.972-134.345-290.963-201.513-43.039-29.806-89.776-30.106-133.023-0.205-143.991 99.553-287.861 199.282-431.788 298.928-3.95 2.735-8.024 5.29-13.747 9.050 0-5.856 0-9.859 0-13.862 0-175.939-0.004-351.877 0.003-527.816 0.001-31.064 13.359-44.355 44.56-44.356 311.478-0.003 622.957-0.003 934.431 0 31.715 0 44.815 13.237 44.815 45.251 0.007 175.557 0 351.116 0 526.673v14.644zM511.666 813.654c-154.203 0-308.405 0-462.608 0-3.427 0-6.854 0.045-10.28-0.013-18.794-0.319-32.039-9.724-37.102-26.314-4.783-15.674 0.8-30.935 16.010-41.605 28.97-20.325 58.16-40.335 87.257-60.48 126.395-87.513 252.782-175.035 379.186-262.533 22.238-15.393 33.548-15.271 56.012 0.285 154.226 106.802 308.47 213.582 462.641 320.464 4.944 3.431 9.999 7.266 13.59 11.986 8.492 11.151 9.969 23.738 4.059 36.61-5.881 12.799-16.252 19.812-30.179 21.378-4.14 0.466-8.36 0.215-12.551 0.215-155.348 0.008-310.69 0.007-466.035 0.007z" />
<glyph unicode="&#xe913;" glyph-name="marker" d="M113.778 571.848c0-67.492 25.8-139.722 60.824-207.589 35.374-68.545 82.096-136.3 128.119-195.749 46.122-59.58 92.147-111.593 126.598-148.679 17.245-18.569 31.639-33.445 41.759-43.713 5.061-5.137 9.056-9.125 11.808-11.85 1.376-1.365 2.442-2.412 3.175-3.129l0.847-0.831 0.232-0.222 0.088-0.085c0 0 0.013-0.011 24.773 27.278 24.76-27.29 24.794-27.261 24.794-27.261l0.067 0.068 0.232 0.222 0.847 0.831c0.733 0.717 1.799 1.764 3.175 3.129 2.752 2.725 6.748 6.713 11.808 11.85 10.12 10.268 24.514 25.145 41.759 43.713 34.45 37.086 80.476 89.099 126.596 148.679 46.023 59.449 92.746 127.204 128.119 195.749 35.026 67.867 60.826 140.096 60.826 207.589 0 216.976-180.144 388.152-398.222 388.152-218.075 0-398.222-171.176-398.222-388.152zM512-12.72l-24.773-27.278 24.773-24.001 24.794 24.018-24.794 27.261zM355.124 571.848c0 88.371 71.541 154.325 156.876 154.325s156.876-65.954 156.876-154.325c0-88.371-71.541-154.326-156.876-154.326s-156.876 65.955-156.876 154.326z" />
<glyph unicode="&#xe914;" glyph-name="person" d="M716.8 706.586c0-111.672-91.694-202.201-204.8-202.201-113.108 0-204.8 90.529-204.8 202.201s91.692 202.201 204.8 202.201c113.106 0 204.8-90.529 204.8-202.201zM1024 268.785l-265.492-281.595-246.508 120.934-246.706-120.934-265.294 281.595 512 185.050 512-185.050z" />
<glyph unicode="&#xe915;" glyph-name="phone" d="M857.846 332.719c-13.804 13.801-29.566 19.707-47.302 19.707-17.749 0-35.478-7.883-47.295-19.707l-13.797-13.791c-11.817-11.822-27.58-17.731-43.35-17.731-15.765 0-31.532 5.908-43.364 17.731l-281.778 279.824c-11.815 11.816-17.732 27.582-17.732 43.347s5.917 31.532 17.732 43.357l13.799 13.789c13.781 13.791 19.697 29.556 19.697 47.299 0 17.732-7.882 35.462-19.697 47.288l-112.325 112.327c-13.801 13.789-29.566 19.707-47.299 19.707-17.731 0-35.462-7.884-47.297-19.707l-135.955-135.967c-11.834-11.824-17.751-25.623-17.751-41.39 0-15.766 5.916-31.523 17.751-41.379l699.534-699.547c11.831-11.824 25.627-17.743 41.376-17.743 15.763 0 31.532 5.919 41.397 17.743l135.96 135.967c13.797 13.797 19.715 29.553 19.715 47.295 0 17.729-7.885 35.465-19.715 47.288l-112.305 114.293z" />
<glyph unicode="&#xe916;" glyph-name="plus" d="M528.735 920.615v-429.651h429.651v-85.929h-429.651v-429.651h-85.93v429.651h-429.651v85.929h429.651v429.651h85.93z" />
<glyph unicode="&#xe917;" d="M193.9 273.968c0 99.598 0.003 199.199-0.002 298.796-0.001 24.412-15.077 36.895-45.212 37.475-30.527 0.584-60.493 23.884-62.928 48.958-0.23 2.368-0.347 4.749-0.347 7.124-0.018 86.125 0.051 172.25-0.078 258.374-0.023 15.353 7.421 27.575 25.28 32.309 32.234 8.544 63.278-2.826 63.105-33.425-0.231-40.948-0.067-81.897-0.051-122.847 0.004-11.549 7.547-18.865 19.274-18.79 11.328 0.073 18.783 7.619 18.765 19.122-0.062 40.648-0.245 81.297-0.206 121.945 0.018 18.387 10.239 31.526 29.101 35.034 35.578 6.618 60.164-7.665 59.727-36.053-0.625-40.525-0.045-81.062 0.035-121.594 0.022-11.145 7.314-18.417 18.507-18.516 10.938-0.097 19.263 7.249 19.32 18.164 0.216 41.741 0.068 83.483 0.122 125.224 0.022 16.75 12.279 30.072 30.495 33.374 24.866 4.507 45.503-2.345 54.21-18.737 2.481-4.672 3.449-10.216 3.461-15.362 0.204-85.86 0.252-171.721 0.091-257.582-0.060-31.76-28.753-55.662-67.47-56.813-25.393-0.758-41.123-14.36-41.118-35.127 0.029-134.977-0.033-269.957-0.056-404.934-0.011-65.775-0.447-131.55 0.255-197.318 0.222-20.797-16.079-37.973-45.245-36.625-11.654 0.539-23.414 0.488-35.067-0.079-24.635-1.201-45.253 13.766-44.128 35.939 0.816 16.090 0.159 32.225 0.159 48.343 0 84.538 0 169.079 0 253.617z" />
<glyph unicode="&#xe918;" d="M707.905 275.029c0 101.519-0.024 203.042 0.061 304.561 0.007 4.949-0.167 8.646-6.905 11.308-47.78 18.869-77.397 51.613-91.327 92.935-26.88 79.732-9.53 154.136 46.868 221.743 21.777 26.106 50.637 45.817 89.064 52.354 46.401 7.893 83.849-7.486 115.569-34.511 38.519-32.82 59.552-73.443 70.373-117.808 11.025-45.218 10.226-90.256-10.213-133.91-16.838-35.956-44.288-64.232-86.624-81.087-4.902-1.952-6.796-4.123-6.789-8.813 0.191-144.872 0.201-289.744 0.212-434.616 0.007-59.484 0.010-118.965-0.116-178.449-0.038-18.452-15.944-32.031-37.943-32.461-14.162-0.276-28.348-0.41-42.51-0.089-24.443 0.553-39.417 13.619-39.694 34.277-0.147 10.837-0.027 21.678-0.027 32.519 0 90.682 0 181.364 0 272.046z" />
<glyph unicode="&#xe919;" glyph-name="production-box" d="M513.781 950.258c1.198 0 2.392 0 3.59 0 3.060-1.975 6.057-4.075 9.188-5.906 137.312-80.294 274.624-160.587 412.002-240.746 5.114-2.984 7.875-5.822 7.863-12.984-0.251-162.247-0.227-324.495-0.068-486.743 0.006-6.296-1.623-9.654-6.941-12.719-132.478-76.366-264.841-152.97-397.231-229.509-2.436-1.409-4.983-2.588-8.425-4.363 0 4.993 0 8.208 0 11.425 0 159.663 0.065 319.324-0.186 478.987-0.012 8.35 2.631 12.304 9.281 16.13 114.859 66.144 229.565 132.602 344.3 198.998 3.323 1.922 6.616 3.902 10.876 6.418-2.929 1.846-4.633 2.99-6.392 4.020-123.122 72.028-246.269 144.006-369.307 216.199-5.291 3.105-9.086 2.243-13.964-0.585-124.153-71.984-248.381-143.818-372.592-215.686-2.579-1.492-5.112-3.074-8.292-4.992 3.655-2.163 6.511-3.889 9.397-5.556 115.028-66.485 230.036-133.007 345.149-199.319 5.992-3.451 8.347-7.211 8.335-14.857-0.248-160.309-0.186-320.618-0.208-480.926 0-3.050-0.307-6.101-0.521-10.153-4.139 2.265-7.311 3.922-10.414 5.716-131.083 75.764-262.133 151.599-393.323 227.148-6.588 3.795-8.274 8.288-8.266 15.853 0.182 160.309 0.203 320.618-0.055 480.924-0.013 7.976 2.473 11.659 8.761 15.284 139.595 80.459 279.063 161.178 418.535 241.887 3.084 1.785 5.945 4.027 8.909 6.056zM385.224 574.681c29.648 17.653 58.1 34.624 86.576 51.548 69.551 41.34 139.162 82.56 208.586 124.149 6.029 3.613 10.445 3.313 16.319 0.007 39.421-22.191 79.034-43.989 118.576-65.933 2.365-1.312 4.658-2.778 8.031-4.802-3.212-2.045-5.595-3.684-8.077-5.128-96.433-56.074-192.9-112.075-289.237-168.329-5.623-3.283-9.79-3.413-15.518-0.236-38.741 21.473-77.703 42.48-116.587 63.659-2.572 1.403-5.073 2.957-8.668 5.064zM638.591 782.28c-3.447-2.173-5.908-3.8-8.431-5.3-95.93-57.045-191.891-114.039-287.751-171.221-5.17-3.084-9.235-3.553-14.67-0.537-34.752 19.273-69.695 38.146-104.567 57.167-2.324 1.268-4.579 2.686-7.963 4.681 3.83 2.415 6.746 4.372 9.759 6.135 96.555 56.475 193.14 112.891 289.625 169.501 5.188 3.043 9.241 3.599 14.708 0.508 35.918-20.312 72.034-40.222 109.289-60.933z" />
<glyph unicode="&#xe91a;" glyph-name="search" d="M496.195 953.272l-0.159 0.023c-4.498 0.772-9.019 1.477-13.574 2.113-11.432 1.59-22.979 2.374-34.469 3.579-0.353 0.034-0.695 0.102-1.036 0.193-0.888 0.227-1.754 0.557-2.642 0.807h-47.826c-5.784-0.693-11.558-1.363-17.331-2.045-3.371-0.398-6.73-0.795-10.089-1.204-16.671-2.045-33.091-5.010-49.249-8.929-0.33-0.080-0.649-0.159-0.979-0.239-1.287-0.318-2.585-0.648-3.872-0.977-21.92-5.589-43.35-12.951-64.303-22.13-59.304-25.993-109.943-63.653-151.745-112.912-46.164-54.428-76.795-116.627-90.733-186.63-1.856-9.293-3.188-18.711-4.384-28.14-0.046-0.307-0.091-0.613-0.114-0.931-0.421-3.351-0.82-6.703-1.218-10.054-1.64-14.996-2.471-30.23-2.471-45.658 0-231.867 188.411-419.839 420.823-419.839 232.421 0 420.837 187.972 420.837 419.839 0 206.215-149.003 377.691-345.465 413.135zM409.925 229.575c-171.012 6.076-308.102 151.040-299.129 325.864 8.541 166.318 151.233 301.962 325.98 293.010 168.277-8.611 297.193-149.947 294.462-314.231-3.066-175.158-150.062-310.73-321.313-304.643zM1019.056 61.076c-74.32 74.103-159.71 142.103-233.99 216.252-15.758-22.915-22.551-38.235-42.513-58.158-20.235-20.178-42.064-38.252-65.36-54.124 74.94-74.877 149.97-149.686 224.939-224.529 1.587-1.576 3.214-3.1 4.864-4.528l117.003 119.95c-1.604 1.741-3.254 3.459-4.944 5.137z" />
<glyph unicode="&#xe91b;" glyph-name="specialist" d="M268.199-37.302c-22.049 12.058-23.673 25.932-17.876 45.301 19.541 65.303 37.527 131.025 56.691 196.434 3.996 13.638 1.939 24.796-6.659 36.305-70.481 94.341-140.621 188.912-210.879 283.406-12.988 17.47-13.21 26.745-0.582 43.923 46.040 62.628 92.109 125.241 138.209 187.831 14.049 19.073 27.253 22.029 48.765 11.193 77.717-39.148 155.456-78.259 233.155-117.436 25.252-12.732 29.128-28.883 12.893-51.343-26.103-36.107-23.208-33.77-67.854-32.672-54.027 1.331-108.056 2.495-162.085 3.702-20.623 0.462-34.386-10.091-35.219-26.916-0.854-17.237 12.313-30.078 32.951-30.745 38.725-1.257 77.469-2.147 116.21-2.563 8.912-0.093 13.573-2.479 17.532-10.522 42.446-86.233 85.454-172.218 128.158-258.34 5.21-10.504 12.136-18.776 24.787-20.837 11.612-1.893 21.613 1.192 28.917 10.271 7.46 9.275 8.524 19.624 3.547 30.121-7.674 16.185-15.919 32.132-23.903 48.187-31.21 62.759-62.421 125.518-93.609 188.286-1.552 3.131-2.873 6.364-5.691 12.639 11.444-2.451 21.107-2.904 29.224-6.51 86.333-38.363 172.833-76.428 258.402-116.292 42.682-19.884 81.69-21.253 118.678 9.436 0.779-0.735 1.623-1.167 1.61-1.567-1.161-33.553-0.521-67.286-4.043-100.613-5.194-49.155-31.449-87.76-73.039-116.947-7.357-5.163-15-10.079-22.993-14.277-13.731-7.211-18.925-18.184-19.161-32.694-0.76-47.169-2.461-94.329-2.873-141.501-0.155-17.532-6.426-29.901-24.080-36.153l-479.184 10.892zM653.396 504.894c-21.132 9.551-49.105 17.392-71.686 34.742-11.813 9.073-10.839 24.399-0.953 37.869 32.386 44.125 64.869 88.186 97.32 132.268 4.468 6.071 8.778 12.259 13.483 18.16 10.972 13.762 27.977 16.74 43.266 7.229 16.192-10.074 32.203-20.429 48.013-31.040 16.713-11.219 19.701-27.716 7.888-43.868-34.453-47.096-69.126-94.048-103.682-141.074-6.83-9.297-15.565-15.13-33.649-14.286zM821.614 429.205c-21.476 10.048-49.509 17.662-72.13 35.015-10.811 8.294-11.335 23.183-3.056 34.58 32.15 44.243 64.546 88.328 97.32 132.152 9.923 13.269 27.043 15.72 41.574 6.746 17.070-10.544 33.953-21.392 50.502-32.659 14.438-9.837 17.914-26.339 7.885-40.181-29.972-41.379-60.428-82.441-90.838-123.532-6.262-8.465-15.149-12.598-31.257-12.12zM404.167 767.703c-41.451 20.877-81.553 41.075-122.55 61.724 1.889 2.805 3.355 5.158 4.997 7.395 24.426 33.271 48.855 66.54 73.325 99.781 13.902 18.885 30.072 21.596 50.412 8.501 19.108-12.3 38.31-24.47 57.238-37.014 14.516-9.618 19.667-25.903 10.482-38.959-23.887-33.955-48.867-67.213-73.905-101.428zM458.352 740.436c6.498 8.965 12.369 17.158 18.345 25.282 16.316 22.186 32.607 44.388 49.040 66.495 11.925 16.047 28.995 19.248 45.978 8.474 19.776-12.545 39.427-25.269 58.973-38.134 17.312-11.396 20.576-27.992 8.651-44.428-18.479-25.468-37.224-50.759-55.87-76.116-0.574-0.78-1.288-1.469-2.777-3.153-40.42 20.345-81.005 40.773-122.34 61.58z" />
<glyph unicode="&#xe91c;" glyph-name="square" d="M1008.147 948.323c-27.769-137.489-55.535-274.979-83.31-412.467-3.41-16.884-6.879-33.758-10.836-53.167l-156.098 156.086-185.881-185.862 185.235-185.217 156.582 156.566c31.753-156.638 62.92-310.409 94.646-466.916-155.812 31.558-309.822 62.753-466.538 94.497l156.405 156.393-185.688 185.67-184.835-184.82 156.936-156.923c-157.293-31.905-311.295-63.144-467.725-94.875 31.622 155.971 62.792 309.713 94.484 466.026l156.13-156.117 185.86 185.847-185.286 185.27-156.293-156.278c-1.802 8.201-3.115 13.793-4.255 19.416-29.21 144.176-58.385 288.355-87.681 432.511-0.862 4.244-2.962 8.237-4.484 12.347 1.29 1.29 2.58 2.58 3.87 3.87 4.563-1.591 9.014-3.739 13.707-4.693 144.578-29.362 289.182-58.601 433.771-87.901 4.952-1.004 9.815-2.44 17.514-4.378l-156.452-156.438 184.792-184.775 185.623 185.606-155.899 155.888c6.92 1.798 11.581 3.247 16.341 4.211 144.564 29.288 289.143 58.51 433.698 87.857 4.701 0.955 9.16 3.108 13.734 4.702l1.933-1.935z" />
<glyph unicode="&#xe91d;" glyph-name="triangle" d="M0 21.333l512 853.333 512-853.333h-1024z" />
<glyph unicode="&#xe91e;" glyph-name="triple-d" d="M542.502 960c19.153-2.552 38.417-4.497 57.451-7.758 108.855-18.652 201.997-67.576 279.266-145.712 73.485-74.314 119.219-163.34 138.59-265.66 2.837-14.982 4.194-30.244 6.174-45.387 0.115-0.9-0.341-1.873-0.623-3.285h-63.189c-10.761 100.235-50.295 187.772-119.428 261.637-38.878 41.536-84.425 74.237-136.235 98.593-18.799-18.816-37.385-37.418-55.232-55.279-54.464 53.879-108.198 107.037-162.193 160.453 1.988 0.661 4.604 1.529 7.219 2.397 16.068 0 32.132 0 48.201 0zM320.056 45.918c18.868 18.94 37.435 37.577 55.181 55.394 54.476-53.905 108.18-107.038 161.569-159.859-56.354-22.007-229.583 25.562-319.353 89.796-128.885 92.224-200.255 217.707-217.454 375.078h64.516c11.747-106.295 55.018-197.986 131.36-273.758 36.259-35.989 77.674-64.794 124.18-86.652zM512.93 279.898v339.257c35.593 0 70.647 0.316 105.685-0.182 11.277-0.16 22.741-1.48 33.737-3.952 61.747-13.881 105.331-62.092 112.951-124.883 4.224-34.816 5.197-69.786-4.642-103.859-17.856-61.85-65.941-101.743-130.859-105.929-38.583-2.483-77.461-0.452-116.873-0.452zM572.608 327.232c18.155 0 35.243-1.203 52.105 0.235 41.079 3.511 69.969 29.815 78.268 69.747 7.253 34.893 7.996 69.935 0.115 104.738-7.023 31.019-23.561 54.936-55.612 64.899-24.371 7.574-49.481 4.236-74.876 4.895v-244.514zM248.745 371.29c1.94 0.482 3.188 1.062 4.437 1.067 16.372 0.060 32.744 0.038 49.52 0.038 0.646-2.146 1.382-3.93 1.709-5.781 5.411-30.635 27.496-45.781 62.543-42.842 28.67 2.402 46.237 21.508 46.865 50.978 0.673 31.556-16.812 51.972-48.477 54.793-14.827 1.318-29.872 0.226-45.325 0.226v45.239c13.309 0 26.29-0.555 39.21 0.098 41.718 2.108 63.783 43.964 42.317 79.802-10.861 18.133-39.322 25.674-63.864 16.682-19.219-7.041-29.475-20.921-30.756-41.918h-55.438c0.035 27.408 11.385 49.334 32.305 65.605 41.408 32.206 107.875 32.323 150.133 1.363 45.867-33.601 40.209-108.495-10.4-137.705-2.567-1.485-5.117-2.995-7.857-4.604 9.126-5.564 18.714-9.903 26.466-16.397 39.804-33.34 35.742-104.951-7.249-135.39-43.782-30.993-107.649-31.731-151.681-0.67-23.589 16.64-34.674 40.311-34.458 69.414z" />
<glyph unicode="&#xe91f;" glyph-name="upload" d="M565.491 376.623c48.28 45.436 93.107 87.382 137.606 129.628 15.846 15.041 34.349 21.162 56.070 15.568 35.296-9.090 49.914-49.025 28.422-76.848-4.205-5.445-9.485-10.209-14.586-14.992-71.514-67.098-143.055-134.172-214.656-201.192-32.672-30.579-59.633-30.694-91.877-0.493-73.151 68.512-146.173 137.151-219.487 205.51-12.873 12.003-21.364 25.38-20.168 42.752 1.416 20.565 12.297 35.722 32.703 43.382 21.587 8.104 41.794 4.3 58.453-11.039 32.523-29.944 64.615-60.3 96.815-90.551 13.581-12.758 26.984-25.683 43.901-41.805 0 10.077 0 15.56 0 21.042 0.001 158.93-0.070 317.859 0.058 476.788 0.028 35.088 27.064 57.867 62.054 52.963 26.504-3.715 44.567-24.486 44.627-52.277 0.169-78.683 0.063-157.366 0.064-236.049 0.001-80.769 0-161.538 0-242.307v-20.081zM512.819 68.096c150.688 0 301.37 0.070 452.058-0.045 39.104-0.032 63.738-24.73 58.4-57.894-3.328-20.666-20.378-37.318-42.49-40.653-8.186-1.235-16.608-1.446-24.922-1.446-295.808-0.070-591.622-0.154-887.433 0.256-13.987 0.019-29.175 2.131-41.681 7.565-21.639 9.402-30.608 32.077-25.227 54.355 4.837 20.026 23.326 35.219 45.917 37.382 6.062 0.582 12.214 0.467 18.324 0.467 149.018 0.019 298.036 0.019 447.053 0.013z" />
<glyph unicode="&#xe920;" glyph-name="vk" d="M610.016 456c-16 6.016-16 28.992-16.992 44.992-4 56.992 16 144-8 180.992-16.992 22.016-99.008 20-148.992 16.992-14.016-2.016-31.008-4.992-43.008-11.008s-24-16-24-24.992c0-12.992 30.016-11.008 40.992-28 12-18.016 12-56.992 12-88.992 0-36.992-6.016-86.016-20.992-88-23.008-0.992-36 22.016-48 39.008-24 32.992-48 74.016-66.016 114.016-8.992 20.992-14.016 44-27.008 52.992-20 14.016-56 15.008-91.008 14.016-32-0.992-78.016 3.008-87.008-16-7.008-20.992 8-40.992 16-58.016 40.992-88.992 84.992-167.008 139.008-240.992 50.016-68.992 96.992-124 188.992-152.992 26.016-8 140-31.008 163.008 0 8 12 6.016 39.008 10.016 59.008s8.992 40 28 40.992c16 0.992 24.992-12.992 35.008-23.008 11.008-11.008 20-20 28-30.016 19.008-19.008 39.008-44.992 63.008-55.008 32.992-14.016 84-10.016 132-8 39.008 0.992 67.008 8.992 70.016 32 2.016 18.016-18.016 44-30.016 59.008-30.016 36.992-44 48-78.016 82.016-15.008 15.008-34.016 31.008-34.016 48.992-0.992 11.008 8 20.992 16 32 35.008 52 70.016 88.992 102.016 143.008 8.992 16 30.016 52.992 22.016 71.008-8.992 20-59.008 14.016-90.016 14.016-40 0-92 3.008-102.016-4.992-19.008-12.992-27.008-34.016-36-54.016-20-46.016-47.008-92.992-75.008-128-10.016-12-28.992-36.992-40-32.992z" />
<glyph unicode="&#xe921;" glyph-name="wastebasket" d="M142.241 831.358h-39.841v85.414c6.642 0 13.799 0 20.956 0 73.917 0.002 147.841 0.589 221.744-0.405 18.469-0.249 33.565 2.783 44.391 19.198 13.823 20.956 33.214 25.132 56.751 24.348 49.226-1.64 98.558 0.239 147.802-1.096 10.134-0.275 23.421-5.468 29.48-13.243 18.586-23.855 40.622-30.418 69.624-29.488 68.376 2.192 136.86 0.695 205.304 0.691 7.373 0 14.746 0 23.149 0v-84.603h-39.997v-27.347c0-243.689 0.014-487.379-0.007-731.070-0.007-83.913-51.043-137.557-131.501-137.646-158.782-0.164-317.566-0.137-476.348 0.034-80.349 0.082-131.485 53.862-131.485 137.626 0 242.979-0.013 485.958-0.020 728.938 0 8.462 0 16.924 0 28.651zM799.328 831.419c-49.052 0-95.549 1.636-141.87-0.609-28.185-1.366-49.553 5.675-67.815 28.789-6.474 8.193-20.481 13.208-31.352 13.813-32.078 1.784-64.318 1.107-96.468 0.287-7.414-0.19-17.99-2.445-21.548-7.762-21.999-32.867-52.63-38.797-87.852-34.731-12.17 1.405-24.617 0.223-36.937 0.223h-91.019c0-9.118 0-15.391 0-21.662 0.004-244.419-0.020-488.838 0.039-733.26 0.010-40.858 13.762-55.030 53.144-55.037 156.058-0.041 312.116-0.048 468.174 0 40.281 0.014 53.525 14.152 53.525 56.791 0 242.287-0.014 484.574-0.020 726.862 0 7.733 0 15.465 0 26.296zM387.764 659.419v-466.354h-79.667v466.354h79.667zM551.543 192.887h-79.624v467.012h79.624v-467.012zM636.479 659.887h79.792v-466.276h-79.792v466.276z" />
<glyph unicode="&#xe923;" glyph-name="youtube" d="M1002.398 704.095c-5.827 22.492-17.24 43-33.089 59.471-15.853 16.471-35.593 28.326-57.237 34.38-79.723 22.418-400.072 22.418-400.072 22.418s-320.349 0-400.070-22.418c-21.648-6.054-41.385-17.91-57.237-34.38s-27.262-36.979-33.089-59.471c-14.886-84.476-22.109-170.217-21.576-256.095-0.533-85.876 6.69-171.618 21.576-256.093 5.827-22.495 17.237-43.003 33.089-59.471 15.852-16.472 35.59-28.328 57.237-34.383 79.721-22.416 400.070-22.416 400.070-22.416s320.349 0 400.072 22.416c21.644 6.056 41.384 17.911 57.237 34.383 15.849 16.468 27.262 36.976 33.089 59.471 14.885 84.475 22.109 170.217 21.574 256.093 0.535 85.878-6.689 171.619-21.574 256.095zM409.606 288.414v319.17l265.862-159.584-265.862-159.586zM675.84 448l-266.24-159.656v319.313l266.24-159.658zM675.468 448l-265.862 159.584v-319.17l265.862 159.586z" />
<glyph unicode="&#xe924;" glyph-name="old-cabinets" d="M153.6 915.621v-889.598h351.534v933.978h-302.379c-27.557 0-49.155-20.172-49.155-44.379zM413.527 629.847h20.109c12.662 0 22.344-9.413 22.344-20.173v-158.689c0-11.43-10.427-20.17-22.344-20.17h-20.109v199.032zM831.491 960h-312.625v-933.978h351.534v894.306c0 21.517-17.441 39.672-38.909 39.672zM598.029 430.815h-18.115c-11.405 0-20.124 9.413-20.124 20.17v158.689c0 11.43 9.39 20.173 20.124 20.173h18.115v-199.032zM204.488-64c18.479 0 33.46 14.925 33.46 33.336s-14.98 33.336-33.46 33.336c-18.479 0-33.46-14.925-33.46-33.336s14.981-33.336 33.46-33.336zM826.286-64c18.481 0 33.459 14.925 33.459 33.336s-14.979 33.336-33.459 33.336c-18.478 0-33.459-14.925-33.459-33.336s14.981-33.336 33.459-33.336z" />
</font>
</defs>
</svg>
