<svg width="28" height="33" viewBox="0 0 28 33" fill="none" xmlns="http://www.w3.org/2000/svg">
<path d="M14.0574 0.313965C14.096 0.313965 14.1345 0.313965 14.1731 0.313965C14.2717 0.377606 14.3683 0.445294 14.4692 0.504306C18.8943 3.09189 23.3194 5.67946 27.7466 8.26272C27.9114 8.35888 28.0004 8.45035 28 8.68115C27.9919 13.9098 27.9927 19.1385 27.9978 24.3672C27.998 24.5701 27.9455 24.6783 27.7741 24.7771C23.5048 27.2381 19.2392 29.7068 14.9727 32.1734C14.8942 32.2188 14.8121 32.2568 14.7012 32.314C14.7012 32.1531 14.7012 32.0495 14.7012 31.9458C14.7012 26.8004 14.7033 21.6551 14.6952 16.5097C14.6948 16.2406 14.78 16.1132 14.9943 15.9899C18.6958 13.8583 22.3924 11.7166 26.0899 9.57689C26.197 9.51495 26.3031 9.45115 26.4404 9.37006C26.346 9.31056 26.2911 9.2737 26.2344 9.24052C22.2666 6.91932 18.298 4.59969 14.3329 2.27316C14.1624 2.17311 14.0401 2.20087 13.8829 2.292C9.88186 4.61179 5.87842 6.92676 1.87553 9.24281C1.79243 9.29089 1.71079 9.34189 1.60832 9.40367C1.7261 9.47338 1.81816 9.52899 1.91115 9.58273C5.6181 11.7253 9.32443 13.8691 13.0341 16.0061C13.2272 16.1173 13.3031 16.2385 13.3027 16.4849C13.2947 21.6511 13.2967 26.8173 13.296 31.9835C13.296 32.0818 13.2861 32.1801 13.2792 32.3107C13.1458 32.2377 13.0436 32.1843 12.9436 32.1265C8.71924 29.6849 4.49597 27.241 0.268144 24.8063C0.0558357 24.684 0.00148789 24.5392 0.00176461 24.2954C0.00762925 19.1292 0.00829677 13.963 1.58602e-06 8.79687C-0.000411168 8.53983 0.0797031 8.42113 0.282352 8.30432C4.78103 5.7114 9.27558 3.1101 13.7703 0.509137C13.8697 0.451599 13.9619 0.379351 14.0574 0.313965Z" fill="#E12026"/>
<path d="M9.91445 12.4175C10.8699 11.8486 11.7868 11.3017 12.7045 10.7563C14.9459 9.42407 17.1892 8.09567 19.4265 6.75539C19.6208 6.63896 19.7631 6.64863 19.9524 6.75515C21.2228 7.4703 22.4994 8.17277 23.7737 8.87993C23.8499 8.92222 23.9238 8.96945 24.0325 9.03467C23.929 9.10058 23.8522 9.15339 23.7722 9.19992C20.6645 11.007 17.5557 12.8117 14.4511 14.6246C14.2699 14.7304 14.1356 14.7346 13.951 14.6322C12.7025 13.9402 11.4469 13.2632 10.1938 12.5807C10.1109 12.5355 10.0303 12.4854 9.91445 12.4175Z" fill="#E12026"/>
<path d="M18.0796 5.72732C17.9685 5.79736 17.8892 5.84979 17.8079 5.89813C14.7164 7.73649 11.6239 9.5732 8.53466 11.416C8.36805 11.5154 8.23705 11.5305 8.06189 11.4333C6.94194 10.8122 5.81586 10.204 4.69207 9.591C4.61716 9.55014 4.54451 9.50444 4.43546 9.44015C4.5589 9.36233 4.65286 9.29925 4.74997 9.24245C7.8616 7.42246 10.9742 5.60437 14.0836 3.78003C14.2508 3.68196 14.3814 3.66406 14.5576 3.76365C15.7151 4.41822 16.879 5.05986 18.0796 5.72732Z" fill="#E12026"/>
</svg>
