<svg width="33" height="33" viewBox="0 0 33 33" fill="none" xmlns="http://www.w3.org/2000/svg">
<path d="M32.4891 0.376308C31.5942 4.80711 30.6994 9.23792 29.8043 13.6687C29.6944 14.2128 29.5826 14.7566 29.4551 15.3821L24.4246 10.352L18.4343 16.3417L24.4038 22.3106L29.4499 17.265C30.4732 22.3129 31.4776 27.2684 32.5 32.3121C27.4787 31.2951 22.5155 30.2898 17.4651 29.2668L22.5055 24.2268L16.5214 18.2433L10.5648 24.1994L15.6223 29.2565C10.5533 30.2847 5.59033 31.2914 0.549131 32.314C1.5682 27.2876 2.57271 22.333 3.59403 17.2956L8.62556 22.3267L14.6152 16.3375L8.64408 10.3669L3.60728 15.4032C3.5492 15.1389 3.5069 14.9587 3.47017 14.7775C2.52883 10.1312 1.58861 5.4848 0.644507 0.839144C0.616712 0.702372 0.549066 0.573702 0.5 0.441256C0.541574 0.399685 0.58315 0.358113 0.624724 0.316543C0.771788 0.367821 0.915204 0.437051 1.06645 0.467769C5.7257 1.41402 10.3858 2.35627 15.0454 3.3005C15.205 3.33284 15.3617 3.37913 15.6098 3.44158L10.5679 8.48304L16.5231 14.4377L22.5051 8.45627L17.481 3.43254C17.704 3.37459 17.8542 3.3279 18.0076 3.29683C22.6664 2.35298 27.3257 1.41125 31.9842 0.465499C32.1357 0.434737 32.2794 0.365349 32.4268 0.313965L32.4891 0.376308Z" fill="#E12026"/>
</svg>
