<svg width="20" height="18" viewBox="0 0 20 18" fill="none" xmlns="http://www.w3.org/2000/svg">
<path d="M18.5717 1.87051C16.908 -0.00754154 14.1826 -0.522361 11.944 0.618307C11.3787 0.906589 10.8526 1.3059 10.3362 1.83964C10.2249 1.95466 10.1142 2.07016 9.99889 2.19115C9.98731 2.17871 9.97523 2.16626 9.96365 2.15431C9.75978 1.94121 9.56699 1.74006 9.35807 1.54638C7.99337 0.280236 6.43486 -0.212175 4.72484 0.0835706C3.58214 0.281233 2.61613 0.727349 1.85449 1.40996C1.10545 2.08112 0.550205 2.98429 0.204368 4.0946C0.138433 4.3057 0.0986631 4.5183 0.0599008 4.72343C0.042781 4.81604 0.0261651 4.90367 0.00754598 4.9908L0 5.02665V6.17828L0.0286968 6.24449C0.0332195 6.25445 0.0377545 6.26391 0.0422771 6.27338C0.194807 7.51114 0.747027 8.61695 1.68435 9.56046C3.45528 11.3434 5.2534 13.1587 6.99313 14.9138C7.78648 15.7144 8.57983 16.515 9.37318 17.3156C9.45522 17.3983 9.53829 17.4804 9.62991 17.5711L10.0643 18.0002L10.307 17.6721C10.3251 17.6477 10.3412 17.6243 10.3563 17.6024C10.3699 17.5825 10.3885 17.5556 10.3956 17.5482C11.423 16.5096 12.4509 15.4714 13.4793 14.4338C13.8977 14.0116 14.316 13.5894 14.7343 13.1677C15.9042 11.9862 17.1144 10.7649 18.3079 9.56793C19.3288 8.54377 19.8936 7.33638 19.9857 5.97862C20.0909 4.43067 19.6152 3.04852 18.5717 1.87051Z" fill="#606060"/>
</svg>
