<svg width="18" height="18" viewBox="0 0 18 18" fill="none" xmlns="http://www.w3.org/2000/svg">
<path d="M8.72217 0.118265L8.71937 0.117865C8.6403 0.104286 8.56084 0.0919052 8.48077 0.0807222C8.27981 0.0527643 8.07684 0.0389852 7.87487 0.0178175C7.86867 0.017219 7.86266 0.0160209 7.85666 0.014423C7.84105 0.0104288 7.82583 0.00463809 7.81022 0.000244141H6.96953C6.86785 0.0124265 6.76636 0.0242079 6.66488 0.0361904C6.60563 0.0431793 6.54658 0.0501681 6.48753 0.0573581C6.19449 0.0933032 5.90586 0.145424 5.62182 0.214319C5.61602 0.215717 5.61041 0.217115 5.60461 0.218513C5.58199 0.224104 5.55917 0.229895 5.53655 0.235687C5.15124 0.333937 4.77453 0.463339 4.40622 0.624694C3.36377 1.0816 2.47363 1.74359 1.73883 2.60947C0.927359 3.56622 0.388918 4.65955 0.143917 5.89008C0.111288 6.05343 0.0878701 6.21898 0.0668567 6.38473C0.0660553 6.39012 0.0652539 6.39551 0.0648531 6.4011C0.0574447 6.46001 0.0504419 6.51892 0.0434342 6.57783C0.0146116 6.84143 0 7.10922 0 7.38041C0 11.4562 3.31192 14.7604 7.39728 14.7604C11.4828 14.7604 14.7948 11.4562 14.7948 7.38041C14.7948 3.75553 12.1756 0.741317 8.72217 0.118265ZM7.20572 12.8395C4.19965 12.7327 1.78987 10.1845 1.9476 7.11142C2.09773 4.18787 4.60599 1.8035 7.67771 1.96086C10.6357 2.11223 12.9018 4.59665 12.8538 7.48445C12.7999 10.5634 10.216 12.9465 7.20572 12.8395ZM17.9131 15.8014C16.6067 14.4988 15.1057 13.3035 13.8 12.0001C13.523 12.4029 13.4036 12.6722 13.0527 13.0224C12.697 13.3771 12.3133 13.6948 11.9038 13.9738C13.2211 15.29 14.54 16.605 15.8578 17.9206C15.8857 17.9483 15.9143 17.9751 15.9433 18.0002L18 15.8917C17.9718 15.8611 17.9428 15.8309 17.9131 15.8014Z" fill="#606060"/>
</svg>
