<svg width="25" height="30" viewBox="0 0 25 30" fill="none" xmlns="http://www.w3.org/2000/svg">
<path d="M3.18067 20.0986C3.18067 17.1807 3.18076 14.2627 3.18061 11.3448C3.18057 10.6296 2.73891 10.2639 1.85604 10.2469C0.961696 10.2298 0.0837696 9.54716 0.0124511 8.81259C0.00571601 8.74322 0.00229745 8.67345 0.0022835 8.60387C0.00176273 6.08068 0.00378037 3.55749 1.55451e-06 1.03431C-0.000671863 0.584504 0.217404 0.226462 0.740632 0.0877663C1.68498 -0.162557 2.59447 0.170555 2.58942 1.06702C2.58266 2.26667 2.58746 3.46636 2.58794 4.66604C2.58807 5.0044 2.80904 5.21873 3.15261 5.21652C3.48449 5.21438 3.70289 4.99331 3.70237 4.65631C3.70054 3.46544 3.69518 2.27456 3.69634 1.08369C3.69686 0.545002 3.99632 0.160079 4.54892 0.0572931C5.59123 -0.136582 6.31153 0.28184 6.29872 1.11352C6.28042 2.30077 6.29741 3.48837 6.29974 4.67583C6.30038 5.00234 6.51403 5.21538 6.84193 5.21829C7.16238 5.22113 7.40629 5.00591 7.40794 4.68615C7.41427 3.46328 7.40992 2.24037 7.41152 1.01748C7.41216 0.52675 7.77127 0.136453 8.30494 0.0397211C9.03345 -0.0923262 9.63803 0.108431 9.89311 0.588657C9.96581 0.725537 9.99416 0.887951 9.99452 1.03873C10.0005 3.55417 10.0019 6.06963 9.99718 8.58507C9.99543 9.51555 9.1548 10.2158 8.02053 10.2495C7.27658 10.2717 6.81575 10.6702 6.81589 11.2786C6.81673 15.233 6.81493 19.1875 6.81425 23.1419C6.81392 25.0689 6.80116 26.9959 6.82173 28.9227C6.82823 29.532 6.35066 30.0352 5.49618 29.9957C5.15476 29.9799 4.81023 29.9814 4.46883 29.998C3.7471 30.0332 3.14307 29.5947 3.17602 28.9451C3.19993 28.4737 3.18067 28.001 3.18067 27.5288C3.18067 25.0521 3.18067 22.5753 3.18067 20.0986Z" fill="#E12026"/>
<path d="M18.2394 20.0675C18.2394 17.0933 18.2387 14.119 18.2412 11.1448C18.2414 10.9998 18.2363 10.8915 18.0389 10.8135C16.6391 10.2607 15.7714 9.30141 15.3633 8.0908C14.5758 5.75489 15.0841 3.57509 16.7364 1.59441C17.3744 0.829576 18.2199 0.252108 19.3457 0.0605959C20.7051 -0.170641 21.8022 0.279919 22.7315 1.07165C23.86 2.03318 24.4762 3.2233 24.7932 4.52306C25.1162 5.8478 25.0928 7.16727 24.494 8.4462C24.0007 9.49961 23.1965 10.328 21.9562 10.8218C21.8126 10.879 21.7571 10.9426 21.7573 11.08C21.7629 15.3243 21.7632 19.5686 21.7635 23.8129C21.7637 25.5556 21.7638 27.2982 21.7601 29.0409C21.759 29.5815 21.293 29.9793 20.6485 29.9919C20.2336 30 19.818 30.0039 19.4031 29.9945C18.687 29.9783 18.2483 29.5955 18.2402 28.9903C18.2359 28.6728 18.2394 28.3552 18.2394 28.0376C18.2394 25.3809 18.2394 22.7242 18.2394 20.0675Z" fill="#0084BF"/>
</svg>
