<svg width="170" height="40" viewBox="0 0 170 40" fill="none" xmlns="http://www.w3.org/2000/svg">
<path fill-rule="evenodd" clip-rule="evenodd" d="M0 40.0002H13L0 20.0003V40.0002Z" fill="#E12026"/>
<path fill-rule="evenodd" clip-rule="evenodd" d="M0 0.000244141H13L0 20.0003V0.000244141Z" fill="#0084BF"/>
<path fill-rule="evenodd" clip-rule="evenodd" d="M26 40.0002L0 40.0002L26 0.000379694V40.0002Z" fill="#404040"/>
<path d="M44.9932 17.5317H44.5576L43.4445 11.0002H38.4114V13.4175L40.3713 19.4859L38 26.8659V29.0002H43.2992L44.5576 22.0316H44.9932L46.2514 29.0002H51.5508V26.8659L49.1794 19.4859L51.1394 13.4175V11.0002H46.1063L44.9932 17.5317ZM65.9607 29.0002V11.0002H55.8217L52.6276 26.7631V29.0002H57.9512L59.9354 15.5002H60.6855V29.0002H65.9607ZM74.0066 20.8745L74.4905 15.526H75.0713L75.5552 20.8745H74.0066ZM70.3769 11.0002L68.0055 26.7631V29.0002H73.2806L73.6194 25.3745H75.9424L76.257 29.0002H81.5562V26.7631L79.1849 11.0002H70.3769ZM91.9009 24.5002H89.8442L91.1508 15.5002H91.9009V24.5002ZM82.8752 29.0002H98.6038V24.5002H97.2003V11.0002H87.0372L84.4481 24.5002H82.8752V29.0002ZM107.811 15.526V24.5002H105.706V15.526H107.811ZM110.981 29.0002C112.239 29.0002 113.11 28.0745 113.11 26.7631V13.2374C113.11 11.926 112.239 11.0002 110.981 11.0002H102.536C101.278 11.0002 100.407 11.926 100.407 13.2374V26.7631C100.407 28.0745 101.278 29.0002 102.536 29.0002H110.981ZM118.083 15.526V29.0002H123.383V15.526H125.053L126.008 11.0002H114.913V15.526H118.083ZM139.898 29.0002V24.5002H133.848V22.0316H139.051V17.5317H133.848V15.526H139.051L139.898 13.2374V11.0002H128.573V29.0002H139.898ZM148.186 17.5317H147.242V11.0002H141.943V29.0002H147.242V22.0316H148.186L149.613 29.0002H154.888V26.7631L152.517 19.4602L154.477 13.2374V11.0002H149.468L148.186 17.5317ZM162.45 20.8745L162.934 15.526H163.515L163.999 20.8745H162.45ZM158.821 11.0002L156.449 26.7631V29.0002H161.724L162.063 25.3745H164.386L164.701 29.0002H170V26.7631L167.629 11.0002H158.821Z" fill="#404040"/>
</svg>
