<svg width="151" height="151" viewBox="0 0 151 151" fill="none" xmlns="http://www.w3.org/2000/svg">
<path d="M15.6108 46.6758C15.1943 47.5354 14.6524 48.1894 13.9852 48.6378C13.3219 49.0783 12.5883 49.3105 11.7846 49.3343C10.9768 49.3464 10.152 49.1513 9.31031 48.749C8.45272 48.3391 7.77863 47.8129 7.28801 47.1704C6.8012 46.5201 6.53008 45.798 6.47467 45.0042C6.41131 44.2066 6.58791 43.3781 7.00447 42.5185C7.41721 41.6668 7.95128 41.0187 8.6067 40.5744C9.26212 40.1301 9.99169 39.896 10.7954 39.8723C11.6029 39.8406 12.4355 40.0297 13.2931 40.4396C14.1348 40.8419 14.803 41.3701 15.2977 42.0243C15.7883 42.6667 16.0693 43.3886 16.1406 44.19C16.2078 44.9797 16.0312 45.8083 15.6108 46.6758ZM14.0262 45.8892C14.3014 45.3214 14.3939 44.7975 14.3039 44.3174C14.2138 43.8372 14.0005 43.4196 13.664 43.0645C13.3314 42.7016 12.9387 42.4119 12.4861 42.1956C12.1526 42.0362 11.8001 41.926 11.4287 41.865C11.0611 41.7961 10.7004 41.7937 10.3467 41.8577C9.9929 41.9217 9.66606 42.0715 9.36615 42.3069C9.05829 42.5386 8.79925 42.8713 8.58906 43.305C8.31772 43.8649 8.2271 44.3849 8.31717 44.8651C8.39929 45.3414 8.60478 45.765 8.93362 46.1358C9.26628 46.4988 9.66684 46.7923 10.1353 47.0162C10.6038 47.2401 11.0847 47.368 11.5778 47.3997C12.0748 47.4236 12.5403 47.3207 12.9744 47.0911C13.4043 46.8498 13.7549 46.4492 14.0262 45.8892Z" fill="white"/>
<path d="M19.3781 39.847L13.0567 35.6556L11.4713 38.014L10.0091 37.0445L14.2441 30.7447L15.7063 31.7141L14.1136 34.0834L20.435 38.2747L19.3781 39.847Z" fill="white"/>
<path d="M22.6496 35.1758L15.5245 29.1496L19.8954 24.0523L21.2339 25.1843L18.0885 28.8524L19.6987 30.2143L22.3984 27.0659L23.6866 28.1554L20.9869 31.3038L22.5468 32.623L25.6921 28.955L27.0206 30.0785L22.6496 35.1758Z" fill="white"/>
<path d="M31.7555 25.7255L29.6118 23.3852C29.4269 23.5995 29.2589 23.7868 29.1078 23.947C28.9632 24.1013 28.8189 24.2494 28.6749 24.3913C28.5374 24.5274 28.3807 24.6749 28.2047 24.8339C27.6571 25.3286 27.1169 25.6688 26.5841 25.8544C26.0512 26.04 25.5236 26.0493 25.0013 25.8823C24.4796 25.7029 23.9549 25.3252 23.4271 24.749L21.3901 22.5252L22.7883 21.2619L24.6919 23.34C25.0003 23.6767 25.2896 23.8885 25.56 23.9756C25.8303 24.0626 26.1089 24.0416 26.3958 23.9126C26.6767 23.7771 26.9867 23.5562 27.3256 23.25C27.4951 23.0968 27.6812 22.9228 27.8839 22.7279C28.0871 22.5206 28.2717 22.3124 28.4376 22.1033L25.4577 18.8502L26.856 17.5869L33.1538 24.4622L31.7555 25.7255Z" fill="white"/>
<path d="M34.5427 23.4072L29.1766 15.7923L34.6999 11.9534L35.708 13.3839L31.7334 16.1464L32.946 17.8673L36.3575 15.4962L37.3276 16.8729L33.9162 19.244L35.091 20.9111L39.0656 18.1486L40.066 19.5684L34.5427 23.4072Z" fill="white"/>
<path d="M44.8827 17.1028C44.0299 17.5418 43.2131 17.7454 42.4322 17.7137C41.6551 17.6701 40.9458 17.4142 40.3044 16.9459C39.6707 16.4736 39.1349 15.8179 38.6969 14.9787C38.2508 14.124 38.018 13.2975 37.9984 12.4993C37.9866 11.697 38.1868 10.968 38.5989 10.3122C39.007 9.64867 39.6296 9.10143 40.4667 8.67047C41.1005 8.34424 41.7244 8.16101 42.3387 8.12081C42.9489 8.07283 43.5161 8.18011 44.0402 8.44262C44.5681 8.69333 45.0294 9.10157 45.4239 9.66736L43.8044 10.5011C43.504 10.1727 43.1405 9.98029 42.714 9.92383C42.2913 9.85558 41.8256 9.95233 41.3171 10.2141C40.7538 10.5041 40.3708 10.8639 40.1682 11.2935C39.9694 11.7113 39.9011 12.1605 39.9633 12.6411C40.0215 13.1139 40.1662 13.5717 40.3973 14.0146C40.6366 14.4731 40.9419 14.8679 41.3134 15.1992C41.6848 15.5305 42.1056 15.7377 42.5759 15.8209C43.0539 15.9001 43.5707 15.7967 44.1262 15.5108C44.4548 15.3416 44.7239 15.144 44.9334 14.9178C45.1389 14.6839 45.2751 14.4314 45.342 14.1603C45.4168 13.8852 45.4186 13.6034 45.3474 13.3147L47.0256 12.4508C47.2674 13.0854 47.3297 13.699 47.2122 14.2918C47.0948 14.8846 46.8347 15.4227 46.4319 15.906C46.025 16.3817 45.5086 16.7806 44.8827 17.1028Z" fill="white"/>
<path d="M51.8135 13.9509L49.2505 6.84449L46.5625 7.80066L45.9697 6.15691L53.1502 3.60267L53.743 5.24642L51.0425 6.20702L53.6055 13.3135L51.8135 13.9509Z" fill="white"/>
<path d="M57.3401 12.0891L55.3416 3.00893L59.3449 2.1399C59.7668 2.04832 60.1593 2.00791 60.5225 2.01865C60.8924 2.01898 61.2262 2.08088 61.524 2.20437C61.8218 2.32785 62.0725 2.52428 62.2761 2.79363C62.4883 3.06111 62.6453 3.42571 62.7469 3.88741C62.8297 4.26361 62.8207 4.63284 62.7201 4.99512C62.6194 5.3574 62.42 5.66049 62.1219 5.90438C62.6015 5.95255 63.011 6.13243 63.3502 6.44402C63.6875 6.74706 63.9192 7.18501 64.0452 7.75786C64.1638 8.29652 64.1636 8.76689 64.0446 9.16898C63.9238 9.56252 63.7137 9.89925 63.4145 10.1792C63.1153 10.4592 62.7513 10.6905 62.3224 10.8732C61.9022 11.054 61.4467 11.1977 60.956 11.3042L57.3401 12.0891ZM58.8142 9.99532L60.7254 9.58043C60.9579 9.52997 61.1693 9.46615 61.3598 9.38897C61.5589 9.30991 61.7275 9.21509 61.8655 9.1045C62.0016 8.98536 62.0968 8.84376 62.1509 8.67972C62.2136 8.51381 62.2214 8.32399 62.1744 8.11024C62.1311 7.91358 62.0566 7.75955 61.9509 7.64812C61.8519 7.52627 61.7241 7.43753 61.5676 7.38193C61.4196 7.32447 61.2515 7.29826 61.0632 7.3033C60.8834 7.30648 60.686 7.33144 60.4707 7.37816L58.34 7.8407L58.8142 9.99532ZM58.0041 6.3145L59.6958 5.94727C59.9282 5.89681 60.1344 5.82964 60.3144 5.74578C60.4944 5.66191 60.6386 5.55895 60.7471 5.43686C60.8555 5.31478 60.9301 5.18215 60.9707 5.03895C61.0095 4.88719 61.0082 4.71725 60.9668 4.52915C60.9122 4.2812 60.8148 4.10524 60.6747 4.00129C60.5326 3.88878 60.357 3.82838 60.1477 3.82006C59.947 3.80987 59.7132 3.83375 59.4463 3.89168L57.5609 4.30097L58.0041 6.3145Z" fill="white"/>
<path d="M65.9253 10.371L65.0962 1.113L71.8112 0.51992L71.967 2.25907L67.1348 2.68586L67.3222 4.77807L71.4697 4.41175L71.6196 6.08552L67.472 6.45185L67.6535 8.47867L72.4857 8.05187L72.6403 9.77795L65.9253 10.371Z" fill="white"/>
<path d="M74.1853 9.73724L74.6185 0.452629L76.5067 0.539543L76.3274 4.38189L80.368 4.56786L80.5473 0.725487L82.4487 0.812996L82.0155 10.0976L80.1141 10.0101L80.2872 6.29888L76.2467 6.11292L76.0735 9.82413L74.1853 9.73724Z" fill="white"/>
<path d="M83.8693 10.3299L85.6579 1.20667L87.5133 1.56545L86.7731 5.34104L90.7435 6.10876L91.4836 2.33317L93.352 2.69445L91.5635 11.8177L89.6951 11.4564L90.41 7.8097L86.4396 7.04197L85.7247 10.6887L83.8693 10.3299Z" fill="white"/>
<path d="M97.8484 14.015C96.9453 13.6899 96.2356 13.2203 95.7192 12.6063C95.2111 11.9952 94.9046 11.2937 94.7999 10.502C94.7064 9.70501 94.8188 8.87043 95.1371 7.99824C95.4614 7.10959 95.9206 6.39054 96.5148 5.84107C97.1173 5.29459 97.8134 4.95401 98.603 4.81933C99.3957 4.67642 100.244 4.76747 101.147 5.09252C102.041 5.41459 102.744 5.87707 103.255 6.47994C103.767 7.08282 104.075 7.78013 104.179 8.57186C104.292 9.36658 104.187 10.2083 103.862 11.0969C103.544 11.9691 103.082 12.6825 102.477 13.2373C101.883 13.7867 101.188 14.137 100.392 14.2882C99.6076 14.4341 98.7597 14.343 97.8484 14.015ZM98.4768 12.37C99.0733 12.5847 99.6075 12.6234 100.079 12.4861C100.551 12.3488 100.948 12.096 101.27 11.7278C101.6 11.3625 101.851 10.9454 102.022 10.4764C102.148 10.1308 102.223 9.77142 102.247 9.39828C102.279 9.02812 102.245 8.6715 102.145 8.32839C102.045 7.98529 101.862 7.67742 101.596 7.40478C101.333 7.12391 100.974 6.90147 100.518 6.73745C99.93 6.52572 99.3999 6.48853 98.928 6.62586C98.4591 6.75497 98.0554 7.00065 97.717 7.36291C97.3868 7.72815 97.1332 8.15352 96.956 8.63899C96.7789 9.12445 96.6992 9.61244 96.7171 10.1029C96.7432 10.5964 96.8931 11.046 97.1669 11.4517C97.4519 11.8522 97.8885 12.1583 98.4768 12.37Z" fill="white"/>
<path d="M103.141 16.047L107.509 7.82702L113.471 10.9521L112.651 12.4962L108.36 10.2474L107.373 12.105L111.056 14.0352L110.266 15.5213L106.583 13.5911L105.627 15.3907L109.917 17.6395L109.103 19.1721L103.141 16.047Z" fill="white"/>
<path d="M116.802 24.8486C116.055 24.2488 115.539 23.575 115.252 22.8272C114.973 22.0849 114.913 21.3226 115.074 20.5402C115.248 19.7565 115.628 19.004 116.215 18.2826C116.814 17.5476 117.484 17.0166 118.226 16.6897C118.975 16.3683 119.745 16.2718 120.536 16.4003C121.332 16.5219 122.104 16.8827 122.85 17.4825C123.591 18.0768 124.103 18.7417 124.388 19.4772C124.674 20.2126 124.736 20.9715 124.575 21.7539C124.42 22.5418 124.044 23.3032 123.446 24.0382C122.858 24.7596 122.187 25.2844 121.433 25.6127C120.691 25.9396 119.919 26.0456 119.117 25.9308C118.328 25.8146 117.556 25.4539 116.802 24.8486ZM117.937 23.4972C118.43 23.8934 118.922 24.103 119.413 24.126C119.905 24.1491 120.363 24.0387 120.788 23.7948C121.22 23.5565 121.594 23.2434 121.91 22.8555C122.143 22.5696 122.331 22.2542 122.476 21.9091C122.628 21.5696 122.713 21.2215 122.732 20.8648C122.75 20.5082 122.678 20.1579 122.516 19.814C122.36 19.4632 122.093 19.1365 121.716 18.8339C121.23 18.4432 120.741 18.2363 120.25 18.2133C119.764 18.1834 119.302 18.2849 118.863 18.5177C118.431 18.7561 118.051 19.076 117.724 19.4775C117.397 19.879 117.162 20.3146 117.018 20.784C116.88 21.259 116.874 21.7325 117 22.2047C117.138 22.6756 117.45 23.1065 117.937 23.4972Z" fill="white"/>
<path d="M121.201 28.521L128.078 22.2166L132.749 27.2423L131.457 28.4266L128.068 24.7803L126.699 26.0358L128.071 27.5117C128.381 27.8461 128.648 28.1912 128.871 28.5469C129.1 28.8966 129.254 29.2558 129.333 29.6243C129.418 29.9869 129.394 30.3545 129.26 30.727C129.133 31.1059 128.868 31.4794 128.467 31.8474C128.026 32.2511 127.586 32.5061 127.145 32.6125C126.71 32.7253 126.283 32.73 125.863 32.6266C125.455 32.5237 125.061 32.3377 124.678 32.0686C124.309 31.8 123.963 31.492 123.64 31.1448L121.201 28.521ZM123.765 28.725L124.949 29.9983C125.098 30.1591 125.258 30.311 125.426 30.4539C125.608 30.5974 125.787 30.7067 125.965 30.7819C126.143 30.8571 126.326 30.8799 126.514 30.8502C126.715 30.821 126.916 30.7144 127.116 30.5303C127.298 30.3641 127.407 30.1982 127.445 30.0324C127.496 29.8672 127.49 29.6998 127.428 29.5301C127.373 29.3545 127.28 29.1774 127.15 28.9988C127.026 28.8266 126.883 28.6537 126.722 28.4801L125.485 27.1489L123.765 28.725Z" fill="white"/>
<path d="M129.735 39.0056C129.193 38.2181 128.892 37.4254 128.834 36.6274C128.781 35.8366 128.944 35.0895 129.325 34.386C129.718 33.6847 130.299 33.0723 131.071 32.5488C131.856 32.0153 132.652 31.6978 133.457 31.5963C134.268 31.502 135.033 31.6291 135.753 31.9776C136.481 32.3211 137.116 32.8867 137.658 33.6742C138.195 34.4545 138.494 35.2376 138.554 36.0234C138.615 36.8092 138.455 37.5539 138.074 38.2574C137.699 38.9682 137.118 39.5903 136.333 40.1237C135.562 40.6472 134.767 40.9586 133.949 41.0579C133.144 41.1595 132.374 41.0409 131.639 40.7023C130.917 40.3659 130.282 39.8004 129.735 39.0056ZM131.212 38.0345C131.57 38.5547 131.981 38.8959 132.445 39.0581C132.909 39.2202 133.379 39.2451 133.857 39.1327C134.34 39.0276 134.789 38.8343 135.203 38.5528C135.509 38.3453 135.781 38.097 136.02 37.8078C136.263 37.5258 136.445 37.2166 136.566 36.8803C136.687 36.5439 136.719 36.1879 136.663 35.8122C136.615 35.4317 136.454 35.0427 136.18 34.6453C135.827 34.1324 135.419 33.7948 134.955 33.6327C134.498 33.4656 134.026 33.431 133.539 33.5289C133.056 33.634 132.6 33.8322 132.171 34.1236C131.741 34.4151 131.39 34.765 131.116 35.1736C130.847 35.5894 130.705 36.0413 130.688 36.5295C130.684 37.0199 130.859 37.5216 131.212 38.0345Z" fill="white"/>
<path d="M132.969 43.9368L141.386 39.875L142.981 43.134C143.293 43.7717 143.465 44.3745 143.498 44.9424C143.543 45.5144 143.415 46.0335 143.114 46.4998C142.821 46.9623 142.321 47.3638 141.616 47.7042C140.958 48.0216 140.336 48.1418 139.75 48.0647C139.167 47.9955 138.643 47.7665 138.179 47.3776C137.722 46.985 137.34 46.4737 137.032 45.844L136.327 44.4034L133.795 45.6254L132.969 43.9368ZM137.849 43.6691L138.542 45.086C138.789 45.5898 139.102 45.93 139.482 46.1065C139.874 46.2871 140.316 46.2588 140.808 46.0217C141.251 45.8075 141.519 45.5228 141.61 45.1677C141.712 44.8165 141.63 44.3694 141.365 43.8262L140.631 42.3266L137.849 43.6691Z" fill="white"/>
<path d="M136.854 52.3997L138.562 51.8421C138.683 52.208 138.805 52.5046 138.926 52.732C139.051 52.9678 139.205 53.1525 139.388 53.2861C139.58 53.417 139.826 53.5162 140.127 53.5839L145.308 48.1752L145.997 50.2579L142.169 53.9535L147.322 54.2613L147.953 56.1694L142.367 55.6855C142.013 55.6536 141.64 55.6188 141.247 55.5812C140.862 55.5409 140.478 55.4867 140.094 55.4187C139.721 55.3563 139.37 55.2635 139.042 55.1403C138.716 55.0255 138.434 54.8735 138.195 54.6843C137.895 54.4506 137.641 54.1465 137.434 53.772C137.229 53.4059 137.036 52.9484 136.854 52.3997Z" fill="white"/>
<path d="M136.808 59.6912L140.855 58.9723C140.919 59.3255 141.057 59.5721 141.27 59.7121C141.484 59.852 141.732 59.9368 142.015 59.9666C142.306 59.9948 142.608 60.0035 142.919 59.9927C143.232 59.9904 143.547 59.9745 143.864 59.9448C144.181 59.9152 144.487 59.8785 144.784 59.8347C145.458 59.7505 146.113 59.6608 146.75 59.5655C147.386 59.4703 148.017 59.3672 148.641 59.2562L149.805 65.7176L142.31 67.0491L142.508 68.1475L138.461 68.8664L138.128 67.0184L140.457 66.6047L139.47 61.1254L137.141 61.5391L136.808 59.6912ZM141.36 61.7765L141.977 65.2011L147.741 64.1771L147.218 61.2695L144.304 61.7203C144.131 61.7511 143.921 61.7795 143.675 61.8054C143.439 61.8384 143.188 61.8608 142.922 61.8726C142.655 61.8843 142.387 61.8832 142.115 61.8691C141.846 61.8636 141.594 61.8328 141.36 61.7765Z" fill="white"/>
<path d="M140.881 74.3799C140.859 73.4262 141.042 72.599 141.432 71.8985C141.821 71.2067 142.368 70.6689 143.073 70.285C143.787 69.9096 144.611 69.7112 145.545 69.6897C146.497 69.6678 147.338 69.8323 148.069 70.1832C148.8 70.5428 149.372 71.0636 149.784 71.7457C150.206 72.4276 150.428 73.2454 150.45 74.1991C150.472 75.1441 150.293 75.9624 149.912 76.654C149.532 77.3456 148.989 77.8833 148.284 78.2672C147.579 78.6598 146.751 78.8671 145.799 78.889C144.865 78.9105 144.028 78.7415 143.288 78.3821C142.557 78.0312 141.977 77.515 141.547 76.8333C141.125 76.1601 140.904 75.3423 140.881 74.3799ZM142.653 74.3654C142.667 74.9953 142.825 75.5039 143.125 75.8909C143.424 76.2779 143.806 76.5537 144.268 76.7181C144.73 76.8913 145.212 76.9722 145.715 76.9606C146.085 76.9521 146.449 76.8912 146.808 76.7779C147.167 76.6733 147.489 76.5127 147.775 76.2961C148.061 76.0794 148.283 75.7985 148.443 75.4534C148.611 75.1081 148.69 74.6949 148.678 74.2136C148.664 73.5924 148.507 73.0883 148.207 72.7012C147.916 72.314 147.539 72.0294 147.076 71.8474C146.614 71.6742 146.123 71.5936 145.603 71.6056C145.083 71.6175 144.596 71.7206 144.142 71.9149C143.689 72.118 143.321 72.4197 143.04 72.8201C142.767 73.2291 142.638 73.7442 142.653 74.3654Z" fill="white"/>
<path d="M140.923 80.1711L150.211 81.3144L149.706 85.3532C149.653 85.7788 149.561 86.1599 149.431 86.4965C149.307 86.843 149.138 87.1351 148.922 87.3731C148.705 87.6111 148.436 87.7807 148.112 87.882C147.788 87.9919 147.389 88.0179 146.917 87.9597C146.532 87.9124 146.184 87.7814 145.874 87.5668C145.563 87.3521 145.342 87.0647 145.209 86.7044C145.004 87.1378 144.697 87.4616 144.288 87.6759C143.889 87.8912 143.396 87.9628 142.81 87.8907C142.259 87.8229 141.812 87.6665 141.47 87.4215C141.136 87.1776 140.886 86.869 140.72 86.4958C140.553 86.1225 140.454 85.7047 140.423 85.2423C140.391 84.7885 140.406 84.3141 140.468 83.8191L140.923 80.1711ZM142.422 82.2473L142.181 84.1755C142.152 84.41 142.142 84.6293 142.152 84.8334C142.161 85.0461 142.195 85.2355 142.255 85.4016C142.323 85.5687 142.425 85.7048 142.563 85.81C142.7 85.9238 142.878 85.9942 143.096 86.0211C143.298 86.0459 143.469 86.0272 143.61 85.9652C143.758 85.9129 143.885 85.8227 143.99 85.6945C144.093 85.575 144.174 85.4262 144.232 85.2481C144.288 85.0787 144.33 84.8854 144.357 84.6683L144.626 82.5186L142.422 82.2473ZM146.187 82.7108L145.974 84.4175C145.945 84.652 145.94 84.8675 145.96 85.0639C145.98 85.2604 146.03 85.4297 146.109 85.5718C146.189 85.7139 146.291 85.8278 146.413 85.9135C146.544 86.0002 146.706 86.0554 146.899 86.079C147.152 86.1103 147.352 86.0775 147.497 85.9807C147.651 85.885 147.767 85.7405 147.844 85.5472C147.92 85.3626 147.975 85.1357 148.009 84.8664L148.246 82.9643L146.187 82.7108Z" fill="white"/>
<path d="M140.061 87.7054L148.14 93.6336L147.587 95.661L137.61 96.689L138.142 94.7377L139.838 94.5957L140.92 90.6297L139.529 89.6567L140.061 87.7054ZM142.407 91.6555L141.64 94.4684L145.924 94.1254L142.407 91.6555Z" fill="white"/>
<path d="M137.121 98.0376L145.7 101.754L144.944 103.475L141.394 101.937L139.776 105.619L143.326 107.157L142.565 108.889L133.987 105.173L134.748 103.44L138.177 104.926L139.794 101.244L136.366 99.7583L137.121 98.0376Z" fill="white"/>
<path d="M133.14 106.812L141.072 111.743L140.069 113.335L134.848 110.089L137.692 117.107L136.836 118.464L128.903 113.533L129.906 111.941L135.06 115.146L132.284 108.169L133.14 106.812Z" fill="white"/>
<path d="M127.717 115.071L134.908 121.02L130.594 126.164L129.243 125.047L132.348 121.345L130.723 120L128.058 123.178L126.758 122.102L129.423 118.925L127.848 117.623L124.743 121.325L123.403 120.215L127.717 115.071Z" fill="white"/>
<path d="M119.987 123.568L126.055 130.644L121.134 134.806L119.994 133.477L123.476 130.532L118.548 124.785L119.987 123.568Z" fill="white"/>
<path d="M113.737 128.704L118.847 136.49L115.791 138.469C115.193 138.856 114.612 139.101 114.049 139.205C113.483 139.32 112.948 139.259 112.445 139.021C111.946 138.79 111.483 138.348 111.054 137.696C110.655 137.087 110.457 136.489 110.461 135.902C110.457 135.319 110.62 134.775 110.951 134.268C111.286 133.769 111.749 133.328 112.339 132.946L113.69 132.071L112.153 129.729L113.737 128.704ZM114.614 133.479L113.286 134.339C112.813 134.645 112.512 134.997 112.384 135.393C112.252 135.802 112.336 136.234 112.634 136.689C112.904 137.099 113.221 137.327 113.588 137.372C113.951 137.429 114.388 137.293 114.897 136.963L116.303 136.053L114.614 133.479Z" fill="white"/>
<path d="M106.651 133.156L110.741 141.516L104.677 144.442L103.909 142.872L108.272 140.766L107.348 138.877L103.603 140.684L102.863 139.173L106.608 137.366L105.713 135.535L101.35 137.641L100.587 136.082L106.651 133.156Z" fill="white"/>
<path d="M99.8097 136.522L102.631 145.384L100.249 146.132L96.4791 142.608L95.4726 147.633L93.1662 148.357L90.3445 139.495L92.1594 138.925L94.2239 145.409L95.3224 140.107L96.066 139.873L100.072 143.572L98.0074 137.088L99.8097 136.522Z" fill="white"/>
<path d="M88.374 139.883L89.7032 149.083L87.8321 149.35L86.9572 143.294L83.3964 149.982L81.8001 150.209L80.4708 141.009L82.3419 140.742L83.2056 146.72L86.7776 140.11L88.374 139.883Z" fill="white"/>
<path d="M76.7835 141.104L76.8716 148.652L79.7266 148.619L79.747 150.365L72.1203 150.453L72.1 148.707L74.9682 148.674L74.8802 141.126L76.7835 141.104Z" fill="white"/>
<path d="M67.2913 140.823L65.6435 149.973L63.7827 149.642L64.8674 143.62L59.3716 148.859L57.7841 148.577L59.432 139.427L61.2928 139.758L60.2221 145.702L65.7039 140.541L67.2913 140.823Z" fill="white"/>
<path d="M50.5715 136.42C51.4644 136.771 52.1546 137.251 52.6424 137.857C53.1187 138.468 53.389 139.168 53.4534 139.956C53.5096 140.741 53.3622 141.573 53.0112 142.451C52.6537 143.346 52.1779 144.063 51.5838 144.601C50.9814 145.135 50.2959 145.463 49.5271 145.584C48.7551 145.713 47.9308 145.605 47.0543 145.259C46.3908 144.998 45.8425 144.65 45.4092 144.215C44.9727 143.789 44.6825 143.294 44.5386 142.728C44.3831 142.168 44.3912 141.555 44.5628 140.888L46.2584 141.556C46.2057 141.996 46.2976 142.395 46.5343 142.752C46.7595 143.114 47.1383 143.4 47.6707 143.609C48.2605 143.842 48.7851 143.893 49.2446 143.764C49.6926 143.639 50.0789 143.396 50.4036 143.034C50.725 142.68 50.9783 142.272 51.1635 141.808C51.3553 141.328 51.4554 140.84 51.4638 140.344C51.4722 139.849 51.3539 139.397 51.1089 138.99C50.8558 138.58 50.4384 138.26 49.8568 138.031C49.5128 137.895 49.1861 137.823 48.8768 137.814C48.5642 137.813 48.283 137.876 48.0329 138.004C47.7747 138.128 47.5592 138.312 47.3865 138.554L45.6294 137.862C45.9534 137.265 46.3793 136.816 46.907 136.515C47.4347 136.215 48.0144 136.057 48.646 136.042C49.2744 136.036 49.9162 136.161 50.5715 136.42Z" fill="white"/>
<path d="M45.3622 134.331L40.7213 142.403L37.1628 140.385C36.7879 140.172 36.4692 139.941 36.2068 139.691C35.9323 139.445 35.7262 139.177 35.5884 138.887C35.4506 138.597 35.3969 138.285 35.4275 137.949C35.4503 137.609 35.5797 137.234 35.8157 136.824C36.008 136.49 36.2637 136.221 36.5828 136.019C36.9019 135.817 37.2544 135.725 37.6402 135.742C37.3166 135.387 37.1339 134.981 37.0922 134.524C37.0462 134.075 37.1696 133.596 37.4624 133.086C37.7377 132.608 38.0551 132.259 38.4146 132.039C38.7698 131.827 39.1529 131.717 39.5639 131.708C39.9749 131.699 40.4012 131.77 40.8428 131.92C41.2768 132.065 41.7119 132.261 42.1481 132.509L45.3622 134.331ZM42.8554 134.905L41.1566 133.942C40.9499 133.825 40.7499 133.731 40.5564 133.662C40.3553 133.588 40.1661 133.546 39.9891 133.537C39.8076 133.535 39.6415 133.576 39.4907 133.662C39.3322 133.744 39.1983 133.879 39.0891 134.069C38.9886 134.244 38.94 134.408 38.9433 134.561C38.9346 134.718 38.9696 134.868 39.0484 135.014C39.1195 135.155 39.2266 135.286 39.3699 135.408C39.5054 135.525 39.6689 135.638 39.8602 135.746L41.7542 136.821L42.8554 134.905ZM40.9742 138.177L39.4704 137.324C39.2638 137.207 39.0654 137.12 38.8752 137.062C38.685 137.005 38.5085 136.985 38.3456 137.004C38.1827 137.022 38.0379 137.071 37.9112 137.151C37.78 137.237 37.6664 137.365 37.5702 137.532C37.4435 137.752 37.3971 137.948 37.4311 138.118C37.4606 138.296 37.5503 138.458 37.7001 138.603C37.8422 138.744 38.0319 138.882 38.2691 139.017L39.9451 139.967L40.9742 138.177Z" fill="white"/>
<path d="M37.622 129.782L31.9794 137.198L26.601 133.161L27.661 131.768L31.5313 134.673L32.8065 132.997L29.4845 130.504L30.5046 129.163L33.8266 131.656L35.0619 130.033L31.1915 127.128L32.2435 125.746L37.622 129.782Z" fill="white"/>
<path d="M31.351 124.978L24.8302 131.645L22.2132 129.12C21.7012 128.626 21.3323 128.118 21.1065 127.595C20.8683 127.073 20.8107 126.541 20.9336 126.001C21.0505 125.467 21.3821 124.921 21.9286 124.362C22.4382 123.841 22.9819 123.517 23.5596 123.391C24.131 123.259 24.7018 123.298 25.272 123.506C25.836 123.721 26.3709 124.072 26.8766 124.56L28.0333 125.676L29.9951 123.67L31.351 124.978ZM26.8544 126.881L25.7166 125.783C25.3121 125.393 24.9007 125.179 24.4827 125.142C24.0521 125.105 23.6465 125.281 23.2658 125.67C22.922 126.022 22.7683 126.38 22.8048 126.744C22.8288 127.109 23.0589 127.502 23.4951 127.923L24.6993 129.084L26.8544 126.881Z" fill="white"/>
<path d="M25.0422 118.712L17.6798 124.45L16.5128 122.973L19.5701 120.591L18.7459 119.548L14.1871 120.03L12.8487 118.336L18.2865 117.903L20.2193 112.609L21.5821 114.333L20.0777 118.426L20.9428 119.521L23.8753 117.235L25.0422 118.712Z" fill="white"/>
<path d="M20.3299 112.885L10.4048 114.42L9.34252 112.604L15.6227 104.836L16.6451 106.585L15.5542 107.882L17.6323 111.435L19.3075 111.137L20.3299 112.885ZM15.8523 111.764L14.3784 109.243L11.6111 112.51L15.8523 111.764Z" fill="white"/>
<path d="M15.0245 103.491L6.37798 107.047L3.79827 100.862L5.42254 100.194L7.27892 104.645L9.23293 103.841L7.63959 100.021L9.20279 99.3776L10.7961 103.198L12.6891 102.419L10.8327 97.9682L12.4448 97.3051L15.0245 103.491Z" fill="white"/>
<path d="M11.5055 94.134L4.18462 96.1636L4.95232 98.8948L3.25898 99.3642L1.20824 92.0684L2.9016 91.5989L3.67284 94.3428L10.9937 92.3132L11.5055 94.134Z" fill="white"/>
<path d="M6.87418 88.5306L0.810111 89.7546L0.451667 87.7644L6.56928 86.8377L6.87418 88.5306ZM9.96291 87.1151C9.9955 87.296 9.98394 87.4803 9.92823 87.668C9.87252 87.8557 9.77233 88.0202 9.62768 88.1615C9.48303 88.3028 9.28926 88.395 9.04636 88.4381C8.7948 88.4828 8.57729 88.4681 8.39385 88.394C8.20886 88.3113 8.06181 88.1907 7.9527 88.0323C7.83492 87.8754 7.75818 87.6979 7.7225 87.4997C7.67129 87.2154 7.72094 86.9443 7.87144 86.6864C8.02039 86.4199 8.27704 86.2543 8.64138 86.1896C8.88427 86.1464 9.0982 86.1662 9.28319 86.2489C9.46664 86.323 9.61726 86.4385 9.73504 86.5954C9.85282 86.7523 9.92878 86.9255 9.96291 87.1151Z" fill="white"/>
</svg>
