<svg width="91" height="91" viewBox="0 0 91 91" fill="none" xmlns="http://www.w3.org/2000/svg">
<path d="M12.357 32.0818L9.35558 29.8929C9.54894 29.6305 9.62523 29.386 9.58444 29.1594C9.54365 28.9329 9.44475 28.7181 9.28774 28.515C9.1243 28.3072 8.94178 28.1052 8.74017 27.909C8.54328 27.7064 8.3361 27.511 8.11863 27.3229C7.90116 27.1348 7.68539 26.9578 7.47135 26.7918C6.9948 26.4049 6.52641 26.0338 6.06616 25.6785C5.60592 25.3232 5.14417 24.9766 4.68092 24.6388L8.21809 19.838L13.777 23.8919L14.3784 23.0758L17.3798 25.2647L16.3682 26.6377L14.6406 25.3779L11.6411 29.4489L13.3687 30.7088L12.357 32.0818ZM10.8907 27.8094L12.7654 25.265L8.49003 22.1471L6.89831 24.3074L9.0151 25.9249C9.14378 26.0188 9.29348 26.1378 9.4642 26.282C9.6332 26.4151 9.80477 26.5648 9.97893 26.7311C10.1531 26.8975 10.3202 27.0735 10.4802 27.2591C10.6449 27.4382 10.7817 27.6217 10.8907 27.8094Z" fill="white"/>
<path d="M15.9343 21.6965L13.4932 12.9822L15.0249 11.8393L22.7215 16.6323L21.2472 17.7323L19.9573 16.8941L16.961 19.1299L17.4085 20.5965L15.9343 21.6965ZM16.4752 17.5727L18.6003 15.987L15.3504 13.8584L16.4752 17.5727Z" fill="white"/>
<path d="M31.4819 11.4011C31.0435 11.5211 30.6067 11.5871 30.1716 11.5992C29.7441 11.6092 29.3441 11.554 28.9716 11.4337C28.5991 11.3134 28.2674 11.1161 27.9764 10.8418C27.6911 10.5577 27.4663 10.1788 27.3023 9.70511L28.8945 9.26939C28.9824 9.46758 29.1041 9.62359 29.2597 9.73741C29.4131 9.84358 29.5899 9.91455 29.7901 9.95031C29.9903 9.98607 30.1995 9.99466 30.4178 9.97609C30.636 9.95752 30.8567 9.91772 31.0798 9.85667C31.2644 9.80616 31.4447 9.74033 31.6209 9.6592C31.8047 9.57597 31.9678 9.47781 32.1103 9.36474C32.2507 9.24401 32.3518 9.1011 32.4137 8.936C32.4757 8.77089 32.477 8.5812 32.4178 8.36694C32.3606 8.16032 32.2767 8.00632 32.1659 7.90493C32.0551 7.80354 31.921 7.73735 31.7635 7.70637C31.606 7.67538 31.4318 7.67368 31.2409 7.70124C31.0499 7.7288 30.8544 7.76995 30.6545 7.82468L29.4892 8.14357L29.1083 6.76615L29.9736 6.52934C30.1813 6.47251 30.3694 6.40458 30.5378 6.32556C30.714 6.24443 30.8607 6.14666 30.978 6.03225C31.0932 5.91018 31.1723 5.77741 31.2153 5.63392C31.2584 5.49043 31.2556 5.33069 31.2069 5.15469C31.1392 4.90981 31.0143 4.74233 30.8322 4.65223C30.6501 4.56213 30.444 4.51977 30.2138 4.52514C29.9836 4.53051 29.757 4.56371 29.5339 4.62476C29.2493 4.70264 28.9984 4.81247 28.7811 4.95425C28.5694 5.08626 28.4116 5.2488 28.3078 5.44184C28.2096 5.62512 28.1845 5.83365 28.2326 6.06744L26.6289 6.50631C26.5286 6.11393 26.5086 5.75724 26.5688 5.43621C26.629 5.11518 26.7441 4.82849 26.9143 4.57614C27.09 4.31403 27.3043 4.08665 27.5572 3.89398C27.8079 3.69366 28.0808 3.52844 28.3758 3.39833C28.6686 3.26057 28.965 3.15063 29.265 3.06854C29.6188 2.97172 29.9766 2.91908 30.3383 2.91064C30.7056 2.89245 31.0559 2.93241 31.3891 3.03053C31.7224 3.12865 32.0089 3.29718 32.2487 3.53611C32.4962 3.77294 32.676 4.09415 32.7882 4.49973C32.8453 4.70634 32.8734 4.91266 32.8724 5.11871C32.8715 5.32475 32.825 5.53089 32.7331 5.73713C32.6489 5.94126 32.5088 6.15249 32.3126 6.37079C32.7891 6.38855 33.1733 6.55095 33.465 6.85799C33.7644 7.16292 33.9765 7.54113 34.1014 7.99261C34.222 8.4288 34.2344 8.83286 34.1387 9.20477C34.0485 9.56693 33.8743 9.89447 33.6161 10.1874C33.3634 10.4705 33.0547 10.7155 32.6899 10.9224C32.323 11.1216 31.9204 11.2811 31.4819 11.4011Z" fill="white"/>
<path d="M37.2132 10.8037L37.3137 7.10259C37.6407 7.11138 37.8862 7.03462 38.0502 6.8723C38.2142 6.70998 38.3354 6.50682 38.4139 6.2628C38.4925 6.01085 38.5556 5.74657 38.603 5.46996C38.6584 5.19357 38.7019 4.91289 38.7336 4.62792C38.7653 4.34295 38.7888 4.0657 38.8041 3.79617C38.8526 3.18614 38.8927 2.59175 38.9243 2.01302C38.956 1.43429 38.9796 0.859304 38.9951 0.288079L44.976 0.448892L44.7898 7.3036L45.8065 7.33093L45.706 11.032L43.9955 10.986L44.0533 8.85581L38.9816 8.71945L38.9237 10.8496L37.2132 10.8037ZM39.9094 7.17238L43.0793 7.25761L43.2225 1.98567L40.5311 1.91331L40.3992 4.56552C40.3949 4.7242 40.3817 4.91439 40.3597 5.1361C40.346 5.3501 40.3199 5.57567 40.2815 5.81282C40.2431 6.04997 40.1928 6.28681 40.1305 6.52332C40.0762 6.76004 40.0025 6.9764 39.9094 7.17238Z" fill="white"/>
<path d="M48.7702 8.36884L51.2021 0.294916L54.3657 1.23811C54.9847 1.42265 55.4948 1.6783 55.8961 2.00506C56.3073 2.3265 56.5771 2.73007 56.7056 3.21579C56.8364 3.69391 56.7999 4.27127 56.5961 4.9479C56.406 5.57891 56.1055 6.06516 55.6945 6.4066C55.2912 6.75033 54.8168 6.95686 54.2712 7.0262C53.728 7.08794 53.1507 7.02768 52.5394 6.84542L51.1409 6.4285L50.4093 8.85752L48.7702 8.36884ZM51.5806 4.96881L52.9561 5.3789C53.4452 5.52471 53.8654 5.52572 54.2169 5.38194C54.5782 5.23283 54.8299 4.92259 54.9719 4.45124C55.1001 4.02549 55.0729 3.67353 54.8902 3.39536C54.7174 3.11186 54.3674 2.89152 53.8401 2.73432L52.3844 2.30031L51.5806 4.96881Z" fill="white"/>
<path d="M57.5603 9.7941L65.0111 4.60851L66.6034 5.66613L64.6162 14.4807L63.0836 13.4627L63.4497 11.9739L60.3347 9.90487L59.0929 10.8121L57.5603 9.7941ZM61.6496 8.93171L63.8589 10.3992L64.7973 6.64229L61.6496 8.93171Z" fill="white"/>
<path d="M70.2791 18.6538C69.725 17.9871 69.3875 17.307 69.2666 16.6135C69.1569 15.9211 69.2494 15.2477 69.5441 14.5934C69.8439 13.9452 70.3257 13.348 70.9897 12.8018C71.666 12.2455 72.3579 11.8824 73.0654 11.7123C73.7779 11.5484 74.4657 11.5851 75.1287 11.8224C75.7978 12.0546 76.4044 12.498 76.9483 13.1525C77.36 13.6479 77.6425 14.1622 77.7957 14.6953C77.955 15.2233 77.9678 15.7431 77.834 16.2547C77.7115 16.7674 77.4359 17.2516 77.0072 17.7072L75.9549 16.4411C76.1901 16.1138 76.2921 15.757 76.2609 15.3707C76.241 14.9855 76.0658 14.5941 75.7354 14.1965C75.3694 13.7561 74.9756 13.4879 74.5542 13.3917C74.1439 13.2967 73.7307 13.3225 73.3144 13.4693C72.9043 13.611 72.524 13.826 72.1735 14.1142C71.8108 14.4126 71.5173 14.757 71.2932 15.1473C71.069 15.5377 70.9647 15.9478 70.9804 16.3778C71.0012 16.8138 71.192 17.2489 71.553 17.6832C71.7665 17.9401 71.994 18.1391 72.2355 18.2803C72.4832 18.4164 72.7342 18.488 72.9885 18.4951C73.2478 18.5083 73.4993 18.4559 73.7429 18.3379L74.8332 19.6499C74.3141 19.9843 73.7792 20.1565 73.2286 20.1666C72.6781 20.1767 72.1489 20.0507 71.6413 19.7886C71.1398 19.5214 70.6857 19.1432 70.2791 18.6538Z" fill="white"/>
<path d="M75.8407 25.0751L82.0294 22.0837L80.8999 19.7708L82.3314 19.0788L85.3486 25.2573L83.9172 25.9492L82.7824 23.6256L76.5937 26.6171L75.8407 25.0751Z" fill="white"/>
<path d="M79.5409 31.1121L87.8688 29.5646L88.5499 33.1924C88.6217 33.5747 88.6477 33.9291 88.6278 34.2558C88.6173 34.5887 88.5517 34.8876 88.4309 35.1522C88.3102 35.4169 88.1243 35.6371 87.8733 35.8129C87.6237 35.9965 87.2872 36.1277 86.8638 36.2064C86.5187 36.2705 86.1826 36.2522 85.8553 36.1516C85.528 36.0509 85.2574 35.863 85.0434 35.5879C84.9863 36.0184 84.8111 36.3819 84.5178 36.6787C84.2324 36.9739 83.827 37.1704 83.3016 37.268C82.8076 37.3598 82.379 37.3466 82.016 37.2283C81.6608 37.1086 81.3598 36.9102 81.113 36.6331C80.8662 36.356 80.6655 36.0219 80.5109 35.6308C80.3578 35.2475 80.2395 34.8335 80.156 34.3888L79.5409 31.1121ZM81.4077 32.4971L81.7329 34.229C81.7724 34.4397 81.8247 34.6318 81.8898 34.8054C81.9563 34.9868 82.038 35.1412 82.135 35.2685C82.2398 35.3944 82.3661 35.4839 82.5141 35.5372C82.6635 35.5982 82.8362 35.6105 83.0323 35.5741C83.2126 35.5406 83.355 35.4778 83.4595 35.3857C83.5732 35.3 83.6576 35.1874 83.7126 35.048C83.769 34.9164 83.7976 34.7658 83.7982 34.5961C83.8002 34.4343 83.783 34.2558 83.7464 34.0608L83.3839 32.1298L81.4077 32.4971ZM84.7836 31.8697L85.0714 33.4028C85.111 33.6134 85.1665 33.8009 85.2379 33.9653C85.3093 34.1296 85.3991 34.2623 85.5074 34.3633C85.6156 34.4643 85.7344 34.5351 85.8637 34.5756C86.0009 34.6147 86.1558 34.6182 86.3283 34.5862C86.5557 34.5439 86.7187 34.4611 86.8173 34.3379C86.9237 34.2131 86.9836 34.0567 86.997 33.8685C87.0118 33.6881 86.9965 33.477 86.9511 33.2351L86.6303 31.5266L84.7836 31.8697Z" fill="white"/>
<path d="M81.9642 41.4208L83.5857 41.558C83.556 41.906 83.5512 42.1963 83.5713 42.429C83.5908 42.6696 83.653 42.878 83.7581 43.0542C83.871 43.231 84.0407 43.4007 84.267 43.5632L90.5132 40.8778L90.3438 42.8587L85.8363 44.5921L90.0183 46.6664L89.8632 48.4813L85.3825 46.1069C85.0992 45.9555 84.8007 45.7948 84.487 45.6249C84.1812 45.4556 83.8804 45.2749 83.5846 45.0826C83.2961 44.8988 83.0371 44.6977 82.8076 44.4792C82.5774 44.2685 82.3966 44.0421 82.2652 43.8C82.0988 43.4992 81.996 43.156 81.9569 42.7703C81.9171 42.3926 81.9196 41.9428 81.9642 41.4208Z" fill="white"/>
<path d="M81.7634 50.2814L89.7916 52.9738L87.8422 58.7272L86.3341 58.2214L87.7369 54.0812L85.9226 53.4728L84.7186 57.0263L83.2672 56.5396L84.4712 52.986L82.7136 52.3966L81.3108 56.5368L79.8141 56.0348L81.7634 50.2814Z" fill="white"/>
<path d="M78.4127 60.4318L84.2177 64.1065L85.6052 61.9369L86.948 62.7869L83.2415 68.5824L81.8988 67.7324L83.2927 65.5528L77.4877 61.8781L78.4127 60.4318Z" fill="white"/>
<path d="M68.9208 72.6844C69.6492 72.212 70.3776 71.9575 71.106 71.921C71.8276 71.8888 72.5052 72.051 73.1388 72.4075C73.77 72.775 74.3164 73.3111 74.7782 74.0159C75.2487 74.734 75.5222 75.4566 75.5987 76.1839C75.6685 76.9154 75.5375 77.602 75.2056 78.2436C74.878 78.8918 74.35 79.4521 73.6215 79.9245C72.8998 80.3926 72.1803 80.646 71.463 80.6849C70.7457 80.7237 70.0702 80.5649 69.4367 80.2083C68.7965 79.8562 68.2411 79.321 67.7707 78.6029C67.3089 77.8982 67.0409 77.1767 66.9667 76.4385C66.8902 75.7113 67.0136 75.0202 67.3368 74.3653C67.6577 73.7214 68.1857 73.1611 68.9208 72.6844ZM69.7763 74.0338C69.2952 74.3458 68.9761 74.7091 68.8191 75.1235C68.6621 75.538 68.6301 75.9614 68.7229 76.3938C68.8091 76.8306 68.9764 77.2384 69.2247 77.6174C69.4076 77.8966 69.6285 78.1466 69.8873 78.3672C70.1394 78.5921 70.4175 78.7623 70.7217 78.8776C71.0258 78.993 71.3496 79.0294 71.693 78.9867C72.0408 78.9507 72.3984 78.8134 72.766 78.5751C73.2405 78.2674 73.5562 77.9063 73.7132 77.4919C73.8745 77.0841 73.9155 76.6596 73.836 76.2186C73.7498 75.7818 73.5782 75.3673 73.3212 74.975C73.0642 74.5827 72.7522 74.2592 72.3853 74.0045C72.0118 73.7541 71.6028 73.6167 71.1583 73.5923C70.7115 73.5789 70.2508 73.7261 69.7763 74.0338Z" fill="white"/>
<path d="M61.6405 77.6133L63.9118 84.0749L66.3516 83.226L66.877 84.7206L60.3596 86.9881L59.8342 85.4936L62.2853 84.6408L60.014 78.1792L61.6405 77.6133Z" fill="white"/>
<path d="M55.4004 80.3689L56.2159 88.7584L50.1415 89.3428L49.9883 87.7668L54.3595 87.3463L54.1752 85.4504L50.4234 85.8113L50.276 84.2945L54.0278 83.9336L53.8493 82.0969L49.4781 82.5174L49.3261 80.9533L55.4004 80.3689Z" fill="white"/>
<path d="M41.8833 81.1453L41.3973 83.9734C41.6543 83.9849 41.8824 83.9995 42.0817 84.0173C42.2731 84.0338 42.4599 84.0535 42.6421 84.0764C42.8165 84.098 43.0098 84.1269 43.2221 84.163C43.8826 84.2754 44.428 84.4688 44.8583 84.7433C45.2887 85.0178 45.5894 85.387 45.7606 85.8509C45.9225 86.3213 45.9437 86.9046 45.824 87.6009L45.3622 90.2881L43.6755 90.0012L44.1071 87.49C44.177 87.0832 44.1679 86.7595 44.0797 86.5191C43.9915 86.2786 43.8212 86.0927 43.5686 85.9611C43.3147 85.8374 42.9833 85.7408 42.5744 85.6712C42.37 85.6364 42.1413 85.6016 41.8883 85.5666C41.6261 85.5381 41.3737 85.5233 41.1311 85.5223L40.4555 89.4534L38.7688 89.1665L40.1967 80.8584L41.8833 81.1453Z" fill="white"/>
<path d="M36.8799 80.8677L33.4925 88.5933L27.8988 86.1657L28.5352 84.7144L32.5604 86.4614L33.3259 84.7155L29.871 83.2161L30.4834 81.8193L33.9383 83.3187L34.6799 81.6274L30.6547 79.8805L31.2863 78.4401L36.8799 80.8677Z" fill="white"/>
<path d="M25.1854 75.43C25.8474 75.9909 26.2984 76.6024 26.5385 77.2644C26.7673 77.9274 26.7937 78.6066 26.6177 79.3018C26.4356 79.9919 26.0653 80.6633 25.5067 81.3159C24.9377 81.9805 24.3197 82.4577 23.6527 82.7473C22.9795 83.0318 22.2958 83.1145 21.6015 82.9953C20.902 82.8822 20.2273 82.5503 19.5774 81.9997C19.0855 81.5829 18.7176 81.1253 18.4737 80.6267C18.2246 80.1343 18.1213 79.6245 18.1638 79.0976C18.195 78.5715 18.3819 78.0471 18.7246 77.5243L19.9818 78.5895C19.8073 78.9525 19.7691 79.3215 19.8673 79.6965C19.9541 80.0724 20.1949 80.4276 20.5897 80.7621C21.027 81.1325 21.4616 81.3287 21.8934 81.3506C22.314 81.3734 22.7165 81.2765 23.1008 81.0601C23.48 80.8497 23.817 80.5723 24.1118 80.2279C24.417 79.8714 24.6459 79.4816 24.7986 79.0584C24.9512 78.6352 24.9823 78.2133 24.8918 77.7926C24.7953 77.3668 24.5314 76.9713 24.1002 76.6059C23.8451 76.3898 23.5863 76.2331 23.3238 76.1358C23.0562 76.0445 22.7965 76.0174 22.5448 76.0543C22.2871 76.0861 22.0486 76.1811 21.8293 76.3394L20.5265 75.2356C20.9795 74.8167 21.4761 74.5547 22.0166 74.4497C22.5571 74.3446 23.1001 74.3773 23.6458 74.5478C24.1863 74.7242 24.6995 75.0183 25.1854 75.43Z" fill="white"/>
<path d="M18.4937 69.9875L12.9149 73.994L14.4277 76.0789L13.1372 77.0057L9.09616 71.436L10.3866 70.5093L11.9064 72.604L17.4852 68.5975L18.4937 69.9875Z" fill="white"/>
<path d="M13.7968 64.6828L5.86487 67.6438L4.5617 64.1885C4.42438 63.8244 4.33702 63.4798 4.29961 63.1547C4.25193 62.825 4.26447 62.5193 4.33724 62.2379C4.41001 61.9564 4.55469 61.7074 4.77126 61.4909C4.98503 61.267 5.29357 61.0798 5.6969 60.9292C6.02553 60.8066 6.35977 60.7665 6.69963 60.8092C7.0395 60.8519 7.33878 60.9902 7.59745 61.2243C7.5787 60.7905 7.68787 60.4022 7.92495 60.0593C8.15457 59.7193 8.51958 59.4559 9.02 59.2691C9.49054 59.0934 9.91489 59.0325 10.293 59.0863C10.6637 59.1429 10.9947 59.2864 11.2861 59.5167C11.5775 59.747 11.8333 60.0414 12.0538 60.3999C12.2714 60.751 12.4601 61.1383 12.6198 61.5619L13.7968 64.6828ZM11.7169 63.6409L11.0947 61.9913C11.019 61.7907 10.934 61.6105 10.8397 61.4507C10.7426 61.2836 10.6352 61.1456 10.5175 61.037C10.3924 60.9311 10.2523 60.8647 10.0973 60.8378C9.93952 60.8035 9.76725 60.8212 9.58053 60.8909C9.40875 60.955 9.27945 61.0414 9.19264 61.1501C9.09556 61.2542 9.03209 61.3796 9.00224 61.5263C8.96959 61.6657 8.96775 61.819 8.99673 61.9862C9.02291 62.1459 9.07102 62.3187 9.14109 62.5045L9.83471 64.3436L11.7169 63.6409ZM8.50151 64.8412L7.95082 63.3811C7.87515 63.1805 7.78782 63.0054 7.68882 62.8559C7.58982 62.7063 7.47822 62.5912 7.35402 62.5104C7.22983 62.4296 7.1005 62.3804 6.96605 62.3628C6.82412 62.3479 6.671 62.3712 6.50669 62.4325C6.29009 62.5134 6.14399 62.623 6.06839 62.7614C5.98532 62.9026 5.95361 63.0671 5.97326 63.2547C5.9901 63.4349 6.04195 63.6402 6.12883 63.8705L6.74258 65.4979L8.50151 64.8412Z" fill="white"/>
<path d="M9.17606 51.149C9.20961 52.0134 9.05521 52.7659 8.71283 53.4065C8.37016 54.0392 7.88244 54.5345 7.24968 54.8924C6.60864 55.2427 5.86563 55.434 5.02066 55.4665C4.15974 55.4995 3.39599 55.3621 2.72941 55.0541C2.06251 54.7382 1.53755 54.2739 1.15452 53.6611C0.763521 53.0487 0.551248 52.3103 0.517698 51.4458C0.484456 50.5893 0.635186 49.8449 0.969892 49.2125C1.3046 48.5801 1.78833 48.085 2.42109 47.7271C3.05354 47.3613 3.80022 47.1618 4.66114 47.1287C5.50611 47.0963 6.26603 47.2379 6.94089 47.5535C7.60748 47.8614 8.14026 48.3215 8.53924 48.9336C8.92993 49.5381 9.1422 50.2766 9.17606 51.149ZM7.57288 51.1867C7.55072 50.6157 7.40118 50.1568 7.12427 49.81C6.84736 49.4633 6.49858 49.2185 6.07791 49.0758C5.65693 48.9252 5.21926 48.8586 4.76488 48.8761C4.43008 48.8889 4.10111 48.9492 3.77798 49.057C3.45453 49.1568 3.16498 49.3069 2.90931 49.5073C2.65364 49.7078 2.45607 49.9655 2.31662 50.2806C2.16919 50.5961 2.10395 50.9719 2.12088 51.4081C2.14273 51.9711 2.29211 52.4261 2.56902 52.7728C2.83796 53.1199 3.18307 53.3727 3.60435 53.5313C4.02533 53.6819 4.47098 53.7482 4.9413 53.7301C5.41161 53.7121 5.8508 53.6118 6.25885 53.4293C6.66659 53.2389 6.99507 52.9602 7.24428 52.5932C7.4852 52.2186 7.59473 51.7498 7.57288 51.1867Z" fill="white"/>
</svg>
