<svg width="14" height="10" viewBox="0 0 14 10" fill="none" xmlns="http://www.w3.org/2000/svg">
<path d="M13.9974 1.98047C13.2734 2.48163 12.5806 2.96096 11.888 3.44056C10.562 4.35884 9.23604 5.27731 7.90999 6.19562C7.32156 6.60312 6.68258 6.60722 6.09131 6.19842C4.12268 4.83734 2.15571 3.47386 0.187962 2.11151C0.133958 2.07412 0.0782552 2.03919 1.41927e-05 1.98778C1.41927e-05 2.06784 1.29191e-05 2.12257 1.29191e-05 2.1773C1.29191e-05 4.58271 -3.72162e-05 6.98812 6.00414e-05 9.39353C7.7206e-05 9.81823 0.182697 9.99995 0.609276 9.99996C4.86777 10 9.12626 10 13.3847 9.99996C13.8183 9.99996 13.9974 9.81898 13.9974 9.38129C13.9975 6.98109 13.9974 4.58088 13.9974 2.18068V1.98047Z" fill="#E12026"/>
<path d="M6.99543 0.000829014C4.88719 0.000829014 2.77895 0.000828538 0.670706 0.000832114C0.623857 0.000832352 0.576996 0.000220377 0.53016 0.00101497C0.273207 0.00537319 0.0921295 0.133961 0.0229096 0.360774C-0.0424896 0.575063 0.0338531 0.783712 0.24179 0.929595C0.637865 1.20747 1.03695 1.48105 1.43475 1.75647C3.1628 2.95293 4.89075 4.14953 6.61894 5.34579C6.92297 5.55624 7.07761 5.55457 7.38473 5.34189C9.49329 3.8817 11.6021 2.42182 13.7099 0.960543C13.7775 0.913637 13.8466 0.8612 13.8957 0.796669C14.0118 0.644216 14.032 0.47213 13.9512 0.296146C13.8708 0.121164 13.729 0.0252828 13.5386 0.00386315C13.482 -0.00250765 13.4243 0.000922465 13.367 0.000919607C11.2431 0.000812089 9.11929 0.000829252 6.99543 0.000829014Z" fill="#E12026"/>
</svg>
