<svg width="14" height="15" viewBox="0 0 14 15" fill="none" xmlns="http://www.w3.org/2000/svg">
<path d="M12.0661 9.18868C11.8639 8.98652 11.633 8.9 11.3732 8.9C11.1132 8.9 10.8535 9.01547 10.6804 9.18868L10.4783 9.3907C10.3052 9.56388 10.0743 9.65043 9.84329 9.65043C9.61236 9.65043 9.3814 9.56388 9.20807 9.3907L5.08046 5.29171C4.90739 5.11863 4.82072 4.88767 4.82072 4.65674C4.82072 4.42581 4.90739 4.19484 5.08046 4.02163L5.28259 3.81964C5.48446 3.61763 5.57112 3.38669 5.57112 3.12679C5.57112 2.86705 5.45566 2.60732 5.28259 2.4341L3.63721 0.788681C3.43505 0.586693 3.20412 0.5 2.94436 0.5C2.68463 0.5 2.42489 0.615495 2.25154 0.788681L0.260019 2.78039C0.0866636 2.9536 0 3.15573 0 3.38669C0 3.61763 0.0866636 3.84845 0.260019 3.99283L10.5071 14.2401C10.6804 14.4133 10.8825 14.5 11.1132 14.5C11.3441 14.5 11.5751 14.4133 11.7196 14.2401L13.7112 12.2484C13.9133 12.0463 14 11.8155 14 11.5556C14 11.2959 13.8845 11.0361 13.7112 10.8629L12.0661 9.18868Z" fill="#E12026"/>
</svg>
